<?xml version="1.0" encoding="UTF-8"?>
<!DOCTYPE svg PUBLIC "-//W3C//DTD SVG 1.1//EN" "http://www.w3.org/Graphics/SVG/1.1/DTD/svg11.dtd">
<!-- Creator: CorelDRAW 2020 (64-Bit Evaluation Version) -->
<svg xmlns="http://www.w3.org/2000/svg" xml:space="preserve" width="68px" height="68px" version="1.1" style="shape-rendering:geometricPrecision; text-rendering:geometricPrecision; image-rendering:optimizeQuality; fill-rule:evenodd; clip-rule:evenodd"
viewBox="0 0 68 68"
 xmlns:xlink="http://www.w3.org/1999/xlink"
 xmlns:xodm="http://www.corel.com/coreldraw/odm/2003">
 <defs>
  <style type="text/css">
   <![CDATA[
    .fil0 {fill:none}
    .fil1 {fill:#BA8523}
   ]]>
  </style>
 </defs>
 <g id="Layer_x0020_1">
  <metadata id="CorelCorpID_0Corel-Layer"/>
  <rect class="fil0" width="68" height="68"/>
  <g id="_1501252860992">
   <path class="fil1" d="M42.85 46.71c1.4,-5.07 5.98,0.6 7.73,2.35 3.68,3.67 6.89,5.45 2.87,8.14l-10.6 -10.49zm0.84 17.29l-2.6 0c-5.33,-0.21 -10.72,-1.69 -14.83,-3.75 -2.07,-1.04 -3.92,-1.99 -5.75,-3.38 -7.87,-5.95 -14.68,-15.02 -16.03,-25.23 -0.37,-2.82 -0.46,-3.17 -0.48,-4.39l0 -2.86c0,-6.47 4.12,-16.76 10.73,-15.19 1.32,0.32 1.21,0.41 2.13,1.16 1.66,1.34 8.88,8.44 9.73,9.96 2.55,4.6 -2.53,7.65 -5.58,9.83 -0.74,0.53 -2.01,1.12 -2.01,2.21 0,1.39 6.6,7.42 7.91,8.73 7.81,7.81 8.13,9.75 10.97,5.94 2.96,-3.96 3.6,-6 7.6,-6 3.11,0 8.57,6.35 11.32,9.08 4.77,4.74 1.21,8.98 -3.42,11.47 -2.85,1.53 -6.21,2.28 -9.69,2.42zm-34.77 -45.94l9.43 9.32c-0.58,0.84 -1.2,0.94 -1.87,1.76 -0.99,1.21 -1,2.21 -1,3.69 0,2.72 3.44,5.42 4.98,6.97 2.25,2.25 10.23,10.52 12.09,11.82 2,1.39 4.69,1.42 6.56,-0.33 0.57,-0.53 0.96,-1.23 1.45,-1.59l9.44 9.32c-1.06,0.53 -2.97,0.93 -4.37,1.14 -0.85,0.12 -1.58,0.05 -2.43,0.16 -2.71,0.36 -9.18,-0.83 -11.68,-1.81 -1.51,-0.59 -2.39,-0.93 -3.77,-1.62 -7.13,-3.57 -11.42,-7.65 -15.54,-14.46l-1.88 -3.74c-1.51,-3.38 -2.38,-7.08 -2.58,-11.25 -0.14,-2.8 -0.38,-0.79 0.03,-4.89 0.12,-1.23 0.68,-3.53 1.14,-4.49zm1.82 -3.46c2.77,-4.1 4.68,-0.7 8.08,2.7 4.51,4.51 6.5,5.36 2.52,8.03l-10.6 -10.73z"/>
   <path class="fil1" d="M32.36 5.87c0,4.04 9.51,-1.39 20.33,9.44 2.51,2.51 4.42,5.31 5.86,8.91 0.76,1.91 1.2,3.38 1.54,5.72 0.53,3.59 -0.36,5.7 2.5,5.7 1.03,0 1.33,-0.92 1.41,-1.86l0 -1.66c0,-3.65 -1.62,-8.64 -2.89,-11.17 -5.18,-10.28 -14.98,-16.95 -26.88,-16.95 -1.13,0 -1.87,0.74 -1.87,1.87z"/>
   <path class="fil1" d="M32.36 12.91c0,3.41 6.88,-0.13 13.88,6.04l1.54 1.27c1.56,1.57 3.63,4.79 4.36,6.89 0.5,1.45 0.94,2.86 1.07,4.55 0.23,2.81 0.08,3.98 2.35,3.98 3.18,0 0.7,-10.33 -2.77,-15.04 -4.51,-6.11 -11.02,-9.57 -19.02,-9.57 -0.76,0 -1.41,1.02 -1.41,1.88z"/>
   <path class="fil1" d="M32.36 19.47c0,4.22 4.57,0.03 10.38,5.79 5.94,5.91 1.55,10.38 5.79,10.38 2.64,0 1.81,-7.88 -3.34,-13.07 -4.45,-4.48 -12.83,-5.95 -12.83,-3.1z"/>
   <path class="fil1" d="M32.36 26.5c0,0.7 -0.08,1.39 0.9,1.91 0.46,0.25 1.21,0.32 1.7,0.41 1.28,0.24 2.04,0.62 2.86,1.36 2.58,2.37 0.24,5.46 3.68,5.46 2.11,0 1.99,-4.61 -1,-7.9 -2.57,-2.82 -8.14,-3.66 -8.14,-1.24z"/>
  </g>
 </g>
</svg>
