<?xml version="1.0" encoding="UTF-8"?>
<!DOCTYPE svg PUBLIC "-//W3C//DTD SVG 1.1//EN" "http://www.w3.org/Graphics/SVG/1.1/DTD/svg11.dtd">
<!-- Creator: CorelDRAW 2020 (64-Bit Evaluation Version) -->
<svg xmlns="http://www.w3.org/2000/svg" xml:space="preserve" width="68px" height="68px" version="1.1" style="shape-rendering:geometricPrecision; text-rendering:geometricPrecision; image-rendering:optimizeQuality; fill-rule:evenodd; clip-rule:evenodd"
viewBox="0 0 68 68"
 xmlns:xlink="http://www.w3.org/1999/xlink"
 xmlns:xodm="http://www.corel.com/coreldraw/odm/2003">
 <defs>
  <style type="text/css">
   <![CDATA[
    .fil0 {fill:none}
    .fil1 {fill:#BA8523}
   ]]>
  </style>
 </defs>
 <g id="Layer_x0020_1">
  <metadata id="CorelCorpID_0Corel-Layer"/>
  <rect class="fil0" width="68" height="68"/>
  <g id="_1503121381856">
   <path class="fil1" d="M7.57 15.02l7.82 -7.89c0.03,1.32 0.03,2.61 0.03,3.9 0,4.9 1.01,3.99 -7.85,3.99zm-3.29 3.39l0 40.2c0,1.58 0.25,2.83 0.97,3.72 0.55,0.68 1.87,1.67 3.02,1.67l39.62 0c2.16,0 4.1,-2.05 4.1,-4.22 0,-0.69 0.23,-2.22 -0.82,-2.22 -2.26,0 0.68,4.68 -3.98,4.68l-38.22 0c-1.61,0 -2.81,-1.08 -2.81,-2.69l0 -42.66 7.97 0c1.05,0 2.03,-0.56 2.47,-1.17 0.62,-0.87 0.7,-1.44 0.7,-2.93l0 -5.51c-0.01,-0.59 -0.19,-1.52 0.35,-1.52l29.54 0c0.8,0 1.38,0.16 1.87,0.47 1.61,1 1.06,3.66 1.06,6.09 0,1.6 0,3.2 0,4.81 0,1.32 -0.38,3.86 0.94,3.86 0.46,0 0.93,-0.38 0.93,-0.94l0 -11.71c0,-2.37 -1.94,-4.34 -4.1,-4.34l-30.36 0c-2.03,0 -3.19,1.6 -4.25,2.67l-6.91 6.91c-1.42,1.42 -2.09,2.03 -2.09,4.83z"/>
   <path class="fil1" d="M46.72 55.68l0 -8.2c2.06,0 2.24,2.98 5.59,1.83 0.53,-0.18 1.1,-0.58 1.47,-0.99 0.41,-0.45 0.68,-0.82 1.61,-0.84l0 8.2c-0.44,-0.1 -0.61,-0.31 -0.98,-0.54 -3.16,-1.95 -3.06,-2.3 -5.58,-0.63 -0.4,0.26 -1.7,1.14 -2.11,1.17zm14.3 -19.34c0,1.88 1.74,2.73 0.5,4.14 -0.59,0.68 -1.38,0.55 -2.11,1.4 -1.54,1.81 -0.39,4.19 -2.95,3.95 -1.67,-0.15 -2.25,-0.36 -3.58,0.77 -0.69,0.59 -0.72,1.11 -1.94,1.11 -1.14,0 -1.84,-1.99 -3.52,-1.99 -1.07,0 -2.24,0.32 -2.93,-0.11 -1.34,-0.83 -0.1,-2.8 -2.48,-4.33 -0.96,-0.61 -1.74,-0.3 -1.74,-2.12 0,-1.06 0.82,-0.58 0.82,-3.17 0,-1.35 -0.82,-1.12 -0.82,-2.81 0,-1.01 0.98,-1.3 1.65,-1.64 2.22,-1.14 1.38,-3.33 2.36,-4.19 1.33,-1.17 2.7,0.7 4.92,-1.06 0.83,-0.66 0.58,-1.2 2.09,-1.2 1.36,0 1.36,2 3.99,2 1.23,0 1.64,-0.53 2.58,0.22 1.04,0.84 0.09,3.11 2.49,4.31 0.38,0.19 1.61,0.51 1.61,1.79 0,0.95 -0.94,1.54 -0.94,2.93zm-15.59 -11.25c-1.62,0 -2.87,1.04 -3.35,2.4 -0.32,0.9 0.11,1.96 -1.29,2.58 -0.49,0.21 -0.81,0.36 -1.19,0.68 -2.51,2.11 -0.27,5.01 -0.27,5.48 0,1.36 -1.61,2.29 -0.62,4.61 0.8,1.87 2.35,1.58 2.97,2.65 0.28,0.5 0.19,1.01 0.32,1.56 0.52,2.16 2.35,2.37 2.96,2.66 0,0.99 -0.13,7.99 0.08,8.6 0.19,0.57 0.97,1.25 1.68,1.25 1.2,0 4,-2.23 4.22,-2.23 0.47,0 2.51,1.38 3.14,1.78 1.25,0.8 2.46,0.43 2.99,-0.69 0.4,-0.82 0.2,-7.5 0.2,-8.71 0.72,-0.35 1.08,-0.12 2.2,-1.31 0.29,-0.31 0.49,-0.69 0.63,-1.13 0.15,-0.46 0.15,-1.13 0.29,-1.58 0.4,-1.21 3.33,-1.34 3.33,-3.95 0,-2.72 -0.82,-1.85 -0.82,-3.4 0,-1.35 0.82,-0.67 0.82,-3.16 0,-2.53 -2.52,-3.02 -2.96,-3.49 -0.83,-0.9 -0.14,-1.83 -1.28,-3.3 -1.62,-2.09 -3.82,-0.99 -4.49,-1.12 -0.68,-0.12 -0.82,-0.39 -1.21,-0.79 -1.19,-1.23 -2.61,-1.66 -4.29,-0.84 -0.48,0.24 -0.76,0.5 -1.11,0.89 -1.13,1.27 -1.85,0.56 -2.95,0.56z"/>
   <path class="fil1" d="M22.45 12.32c0,1.74 -0.39,4.57 2.11,4.57 1.1,0 2.35,0.24 2.35,-0.94 0,-1.18 -1.51,-0.93 -2.58,-0.93l0 -3.17 18.05 0c0.27,0 0.35,0.08 0.35,0.35l0 2.82 -12.42 0c-1.35,0 -1.46,1.87 -0.12,1.87l12.31 0c2.29,0 2.11,-2.42 2.11,-3.98 0,-1.81 -0.62,-2.93 -2.46,-2.93l-17.12 0c-1.58,0 -2.58,0.69 -2.58,2.34z"/>
   <path class="fil1" d="M51.17 41.97c-3.18,0 -5.62,-2.59 -5.62,-5.16 0,-1.88 0.32,-3.11 1.66,-4.42 3.52,-3.45 9.47,-0.78 9.47,3.95 0,3.03 -2.5,5.63 -5.51,5.63zm-7.5 -5.74c0,2.01 0.74,3.85 2.02,5.24 0.53,0.58 1.39,1.18 2.09,1.55 4.83,2.51 10.66,-1.37 10.66,-6.09 0,-2.18 -0.31,-3.8 -1.84,-5.42l-0.4 -0.43c-4.91,-4.74 -12.53,-0.81 -12.53,5.15z"/>
   <path class="fil1" d="M10.97 26.15c0,0.6 0.48,0.94 1.05,0.94l22.27 0c1.33,0 1.33,-1.88 0,-1.88l-22.27 0c-0.57,0 -1.05,0.33 -1.05,0.94z"/>
   <path class="fil1" d="M10.97 44.55c0,0.63 0.27,1.05 0.93,1.05l22.39 0c1.23,0 1.54,-1.87 -0.23,-1.87l-22.04 0c-0.48,0 -1.05,0.39 -1.05,0.82z"/>
   <path class="fil1" d="M10.97 32.24c0,0.84 0.68,1.06 1.52,1.06l21.45 0c1.99,0 1.41,-1.88 0.59,-1.88l-22.63 0c-0.5,0 -0.93,0.36 -0.93,0.82z"/>
   <path class="fil1" d="M10.97 38.45c0,0.57 0.37,0.94 0.93,0.94l22.51 0c1.16,0 1.16,-1.76 0,-1.76l-22.74 0c-0.33,0 -0.7,0.49 -0.7,0.82z"/>
   <path class="fil1" d="M10.97 53.69c0,0.57 0.37,0.93 0.93,0.93l11.26 0c1.11,0 1.58,-1.87 -0.59,-1.87l-10.08 0c-0.75,0 -1.52,0.22 -1.52,0.94z"/>
  </g>
 </g>
</svg>
