<?xml version="1.0" encoding="UTF-8"?>
<!DOCTYPE svg PUBLIC "-//W3C//DTD SVG 1.1//EN" "http://www.w3.org/Graphics/SVG/1.1/DTD/svg11.dtd">
<!-- Creator: CorelDRAW 2020 (64-Bit Evaluation Version) -->
<svg xmlns="http://www.w3.org/2000/svg" xml:space="preserve" width="68px" height="68px" version="1.1" style="shape-rendering:geometricPrecision; text-rendering:geometricPrecision; image-rendering:optimizeQuality; fill-rule:evenodd; clip-rule:evenodd"
viewBox="0 0 68 68"
 xmlns:xlink="http://www.w3.org/1999/xlink"
 xmlns:xodm="http://www.corel.com/coreldraw/odm/2003">
 <defs>
  <style type="text/css">
   <![CDATA[
    .fil0 {fill:none}
    .fil1 {fill:#BA8523}
   ]]>
  </style>
 </defs>
 <g id="Layer_x0020_1">
  <metadata id="CorelCorpID_0Corel-Layer"/>
  <rect class="fil0" width="68" height="68"/>
  <g id="_2155152173328">
   <path class="fil1" d="M28.14 54.98l0 0zm13.95 -1.17l0 0zm0 0l1.3 -1.51c0.45,-0.57 0.81,-1.08 1.23,-1.71 0.4,-0.6 0.77,-1.2 1.1,-1.82 0.16,-0.31 0.32,-0.63 0.47,-0.94 0.17,-0.35 0.29,-0.72 0.47,-1.06 0.35,0.09 2.14,0.81 2.46,1.29 -0.4,0.6 -0.96,1.12 -1.46,1.71 -0.82,0.99 -4.4,3.76 -5.57,4.04zm-13.95 1.17c-0.64,-0.15 -1.63,-0.87 -2.14,-1.26 -0.43,-0.31 -0.51,-0.41 -0.88,-0.77 -1.04,-1.01 -1.51,-1.43 -2.44,-2.71 -0.47,-0.65 -0.97,-1.49 -1.34,-2.18 0.99,-0.66 1.29,-1.55 1.53,-2.58 0.48,-0.11 1.35,-0.33 1.87,-0.35 0.02,0.73 0.41,2.09 0.56,2.72 0.23,0.93 0.46,1.69 0.75,2.54 0.25,0.76 0.57,1.67 0.92,2.36l1.17 2.23zm-11.95 -7.03c0.54,-0.29 0.58,-0.27 1.08,0.09 0.73,0.52 1.02,0.54 1.89,0.69 0.49,0.08 0.42,0.04 0.6,0.22 0.12,0.12 0.5,0.89 0.65,1.11 0.61,0.92 1.41,2.18 2.19,2.96 0.32,0.31 0.62,0.55 0.85,0.9 -0.75,-0.17 -3.42,-2.02 -4.01,-2.55 -1.04,-0.94 -2.45,-2.23 -3.25,-3.42zm1.4 -2.7c0,-2.29 3.4,-2.4 3.4,0 0,2.23 -3.4,2.12 -3.4,0zm20.39 3.63c0,0.85 1.39,1.77 1.91,-0.32 0.26,-1.07 0.53,-2.3 0.79,-3.43 1.22,0.03 3.52,0.92 4.22,0.94 -0.42,1.78 -2.65,4.93 -4.07,6.36l-1.11 1c-0.79,0.69 -1.61,1.16 -2.56,1.66 0.15,-0.64 0.56,-0.79 0.74,-1.38 0.22,-0.78 -0.86,-1.97 -1.79,-0.49 -0.87,1.39 -1.15,1.82 -2.46,2.69l0 -11.48c0.42,0 0.87,-0.02 1.29,0l3.86 0.35c0,1.22 -0.82,3.31 -0.82,4.1zm-11.48 -4.1c0.86,0 3.47,-0.35 5.27,-0.35l0 11.48c-2.77,-1.46 -4.31,-6.47 -4.91,-9.38 -0.08,-0.39 -0.24,-1.49 -0.36,-1.75zm12.66 -1.76c-0.77,-0.06 -1.89,-0.22 -2.61,-0.32l-2.9 -0.15 0 -3.86c0.84,-0.07 1.82,-0.99 2.15,-1.72 0.46,-1 -0.22,-0.74 3.82,-0.74 0,1.23 -0.02,2.31 -0.12,3.51 -0.08,0.99 -0.34,2.28 -0.34,3.28zm-20.75 -6.09l0 -0.7 5.51 0c0,1.67 0.11,3.15 0.24,4.68 0.33,3.8 0.38,1.85 -1.64,2.82 -0.73,-1.37 -1.77,-2.11 -3.52,-2.11 -0.03,-0.34 -0.15,-0.81 -0.2,-1.09 -0.08,-0.47 -0.11,-0.64 -0.17,-1.12 -0.11,-0.77 -0.22,-1.55 -0.22,-2.48zm-6.44 -0.12l0 -0.58 4.57 0c0,1.09 0.09,2.1 0.23,3.05l0.47 2.92c0,0.44 -0.07,0.07 -0.59,0.7 -0.2,0.25 -0.35,0.44 -0.5,0.79 -0.41,0.93 -0.31,1.14 -0.31,2.38 -0.28,0.15 -0.48,0.27 -0.82,0.35l-1.08 -2.09c-0.93,-1.78 -1.97,-5.34 -1.97,-7.52zm33.63 7.62c-0.89,-0.21 -1.69,-0.51 -2.59,-0.69 -3.22,-0.67 -1.71,0.58 -1.63,-5.88 0.01,-0.67 0.12,-0.88 0.12,-1.63l5.51 0c0,3.84 -0.71,5.2 -1.41,8.2zm4.69 1.99c-0.56,-0.13 -0.98,-0.47 -1.43,-0.68 -0.5,-0.24 -0.94,-0.48 -1.5,-0.61l0.99 -4.17c0.28,-1.5 0.4,-3.13 0.53,-4.73l4.57 0c0,2.79 -0.95,5.66 -1.96,8 -0.36,0.86 -0.8,1.44 -1.2,2.19zm-24.61 -10.19l3.63 0c0.09,1.04 1.42,2.37 2.46,2.46l0 3.86 -5.5 0.47c-0.2,-0.85 -0.31,-2.27 -0.36,-3.27l-0.23 -3.52zm5.27 -0.94c0,-2 3.4,-2.48 3.4,0.23 0,1.93 -3.4,2.13 -3.4,-0.23zm2.7 -7.15c2.09,0 4.24,-0.35 5.51,-0.35l0.35 3.16c0.06,1.24 0.11,2.22 0.11,3.52l-3.51 0c-0.25,-1.05 -1.3,-2.37 -2.46,-2.46l0 -3.87zm-4.34 6.33l-3.63 0 0.11 -2.35c0,-0.8 0.12,-1.39 0.12,-2.34 0.92,-0.21 2,-0.9 2.23,-1.76 1.33,0 2.26,0.12 3.63,0.12 0,5.61 0.28,2.93 -1.5,4.6 -0.35,0.33 -0.91,1.13 -0.96,1.73zm-5.39 -0.94l0 0.94 -5.51 0c0,-4.68 1.27,-7.36 1.29,-8.2 0.67,0.15 1.35,0.43 1.99,0.58 0,1.27 1.32,2.72 2.47,2.81 0,1.15 -0.24,2.47 -0.24,3.87zm16.99 -6.09l4.69 -1.17c0.34,1.43 0.58,1.79 0.97,3.83 0.22,1.14 0.44,2.99 0.44,4.37l-5.51 0c0,-1.1 -0.34,-6.52 -0.59,-7.03zm-15.58 0.58c-2.7,0 -2.25,-3.39 -0.24,-3.39 2.38,0 2.16,3.39 0.24,3.39zm22.03 -2.34l2.93 -1.41c1.48,2.22 3.16,6.51 3.16,10.2l-4.57 0 -0.18 -2.4c-0.12,-0.82 -0.18,-1.44 -0.32,-2.26 -0.24,-1.45 -0.96,-3.67 -1.02,-4.13zm-30.82 8.79l-4.57 0c0,-2.27 0.41,-4 1.04,-5.88 0.34,-1.03 0.88,-2.31 1.44,-3.24 0.17,-0.29 0.48,-0.77 0.57,-1.08 0.55,0.13 1,0.49 1.5,0.72 0.46,0.21 1.09,0.45 1.54,0.69 -0.82,1.71 -1.52,6.92 -1.52,8.79zm15.23 -8.09l-3.16 -0.23c0,-1.34 -0.71,-2.15 -1.52,-2.7 0.01,-0.67 0.5,-2.03 0.68,-2.59 0.47,-1.39 1.3,-3.35 2.18,-4.51 0.38,-0.51 1.19,-1.4 1.82,-1.57 0,0.6 -0.12,3.08 0.13,3.51 0.32,0.53 1.71,0.99 1.75,-1.04 0.02,-0.81 0,-1.66 0,-2.47 2.44,1.29 3.7,5.08 4.45,7.73 0.21,0.75 0.7,2.55 0.7,3.4l-2.52 0.29c-0.76,0.11 -2.04,-0.1 -2.63,0.18 0,-1.69 0.37,-4.15 -0.95,-4.19 -0.32,0 -0.65,0.22 -0.8,0.45 -0.25,0.42 -0.13,3.14 -0.13,3.74zm-8.55 -9.49l-1.89 2.33c-0.72,0.91 -2.32,3.64 -2.56,4.7 -0.58,-0.05 -2.16,-0.89 -2.58,-1.17 1.1,-1.65 3.22,-3.56 4.92,-4.69 0.5,-0.33 1.49,-1.03 2.11,-1.17zm18.75 -0.12c0.86,0.2 3.25,1.96 4,2.56l0.89 0.76c0.29,0.24 0.55,0.54 0.82,0.81l1.55 1.85c-0.66,0.35 -1.82,1 -2.57,1.17 -0.16,-0.33 -0.25,-0.61 -0.43,-0.98 -0.86,-1.69 -2.2,-4.07 -3.53,-5.38 -0.28,-0.28 -0.52,-0.47 -0.73,-0.79zm-18.75 0.12l0 0zm18.75 -0.12l0 0zm-4.81 -1.17c2.92,1.55 4.62,3.23 6.38,6.16 0.32,0.53 1.31,2.28 1.36,2.87l-4.22 1.05c-0.11,-1.34 -0.92,-4.11 -1.36,-5.44 -0.63,-1.88 -1.31,-3.02 -2.16,-4.64zm-11.83 7.15c-0.84,0.2 -2.98,0.4 -3.4,2.23 -0.56,-0.05 -0.92,-0.31 -1.52,-0.35l0.66 -1.45c1.27,-2.54 2.47,-4.11 4.58,-5.97 0.47,-0.41 1.98,-1.46 2.61,-1.61 -1.28,1.91 -2.33,4.57 -2.93,7.15zm-15.24 11.6c0,3.85 0.16,5.16 1.37,8.72 0.72,2.15 2.42,5.14 3.88,6.78 0.22,0.25 0.42,0.39 0.64,0.65 2.77,3.14 6.68,5.64 10.8,6.66 4.84,1.2 9.17,1.06 13.88,-0.68 3.25,-1.2 5.56,-2.83 7.98,-5.15l0.33 -0.36c3.05,-3.33 4.67,-6.14 5.77,-10.64 1.68,-6.83 -0.42,-15.07 -5.3,-20.13l-1.47 -1.46c-0.88,-0.82 -0.34,-0.44 -1.5,-1.31 -6.49,-4.86 -15.32,-6.32 -22.82,-2.81 -3.42,1.61 -3.06,1.59 -5.94,3.79 -0.3,0.24 -0.45,0.39 -0.73,0.68l-1.3 1.4c-2.41,2.87 -3.78,5.26 -4.83,8.99 -0.37,1.29 -0.76,3.31 -0.76,4.87z"/>
   <path class="fil1" d="M60.48 33.65c0.49,0 0.85,0.15 1.13,0.4 0.96,0.85 0.67,3 -1.24,3 -1.95,0 -2.3,-3.4 0.11,-3.4zm-28.08 -29.65l0.46 0c1.61,0.1 3.12,1.26 3.25,2.81 2.67,0.62 2.5,0.27 5.79,1.36 2.76,0.93 5.79,2.44 8.05,4.25 2.31,1.84 3.46,2.87 5.31,5.24 1.99,2.55 2.67,3.79 3.9,6.65 0.96,2.21 1.51,4.28 1.9,6.88 0.14,0.86 0.15,0.66 0.83,0.94 1.31,0.54 2.05,1.73 2.11,2.98l0 0.34c-0.04,0.89 -0.43,1.79 -1.2,2.51 -0.41,0.38 -0.67,0.51 -1.18,0.69 -0.51,0.19 -0.42,-0.02 -0.6,1.16 -0.37,2.4 -0.78,3.62 -1.54,5.84 -0.58,1.67 -1.54,3.42 -2.49,4.9l-1.53 2.22c-0.28,0.37 -0.52,0.69 -0.82,1.05 -0.27,0.35 -0.57,0.56 -0.85,0.91 -4.13,5.17 -13.09,9.27 -20.14,9.27l-2.34 0c-0.57,-0.08 -0.94,-0.32 -0.94,-0.94 0,-1.19 1.76,-0.82 1.87,-0.82 8.69,0 16.23,-3.63 21.46,-10.18 2.52,-3.15 4.23,-6.71 5.17,-10.65 0.14,-0.57 0.44,-2.05 0.44,-2.72 -0.63,-0.34 -0.71,-0.29 -1.28,-0.83 -0.1,-0.11 -0.02,-0.01 -0.17,-0.18 -1.48,-1.66 -1.15,-4.39 1.04,-5.5 0.16,-0.08 0.27,-0.11 0.41,-0.17 0,-2.53 -1.62,-6.77 -2.73,-8.99 -0.54,-1.09 -1.54,-2.66 -2.26,-3.6 -1.79,-2.39 -3.43,-4 -5.81,-5.79 -1.07,-0.82 -2.4,-1.62 -3.61,-2.25 -2.04,-1.07 -6.54,-2.64 -8.91,-2.69 -0.14,0.61 -0.73,1.28 -1.18,1.62 -2.46,1.83 -5.26,-0.22 -5.38,-1.62 -0.75,0 -2.34,0.59 -2.34,-0.82 0,-0.94 1.32,-0.88 2.11,-1.06 0.32,-0.68 0.11,-0.92 1.13,-1.91 0.6,-0.57 1.33,-0.85 2.07,-0.9zm-1.45 3.52c0,-0.87 0.74,-1.61 1.57,-1.72 2.04,-0.27 2.89,3.36 -0.04,3.36 -0.79,0 -1.53,-0.84 -1.53,-1.64z"/>
   <path class="fil1" d="M17.94 60.37c-2.63,0 -2.15,-2.87 -0.79,-3.26 0.76,-0.22 1.3,-0.06 1.77,0.41 1.16,1.15 0.18,2.85 -0.98,2.85zm-3.75 -1.88c0,4.17 4.75,4.54 5.98,2.7 0.37,0.17 1.49,0.7 1.88,0.7 0.82,0 1.66,-1.62 -0.94,-2.23 0.48,-1 -0.15,-2.5 -0.57,-3.06 -2.09,-2.8 -6.35,-0.99 -6.35,1.89z"/>
   <path class="fil1" d="M4 34.71c0.05,0.66 0.28,1.39 1.19,1.08 0.8,-0.27 0.68,-1.28 0.68,-2.14 0,-1.27 -1.87,-1.52 -1.87,0.23l0 0.83z"/>
   <path class="fil1" d="M4.23 38.8c0,3.59 2,2.62 2,1.65 0,-0.58 -0.04,-1.62 -0.44,-2.03 -0.36,-0.38 -0.74,-0.4 -1.16,-0.15 -0.16,0.09 -0.4,0.4 -0.4,0.53z"/>
   <path class="fil1" d="M11.03 53.69c0,0.69 1.26,2.25 2.12,2 1.73,-0.5 -0.48,-2.95 -1.37,-2.78 -0.33,0.07 -0.75,0.45 -0.75,0.78z"/>
   <path class="fil1" d="M16.89 11.73c0,1.81 2.01,0.79 2.73,0.04 0.6,-0.63 0.06,-1.56 -0.62,-1.56 -0.21,0 -2.11,0.91 -2.11,1.52z"/>
   <path class="fil1" d="M5.52 30.37c1.05,0 1.17,-1.66 1.17,-2.46 0,-0.34 -0.48,-0.71 -0.82,-0.71 -0.91,0 -0.92,0.81 -1.12,1.57 -0.21,0.79 -0.21,1.6 0.77,1.6z"/>
   <path class="fil1" d="M21.81 9.39c0,1.73 3.12,0.53 3.1,-0.45 -0.01,-0.91 -0.78,-1.03 -1.5,-0.77 -0.7,0.24 -1.6,0.36 -1.6,1.22z"/>
   <path class="fil1" d="M12.55 15.13c0,0.71 0.51,1.06 0.94,1.06 0.21,0 1.88,-0.96 1.88,-1.88 0,-0.89 -0.82,-1.12 -1.48,-0.66 -0.29,0.21 -1.34,1.15 -1.34,1.48z"/>
   <path class="fil1" d="M9.39 51.46c0.68,0 1.37,-0.62 0.59,-1.76 -0.16,-0.24 -0.28,-0.49 -0.45,-0.72 -0.35,-0.48 -0.95,-0.77 -1.47,-0.25 -0.57,0.58 -0.14,1.09 0.15,1.57 0.24,0.39 0.6,1.16 1.18,1.16z"/>
   <path class="fil1" d="M5.52 44.2c0,0.6 0.43,1.78 0.73,2.09 0.52,0.54 1.5,0.33 1.5,-0.57 0,-0.69 -0.56,-2.23 -1.17,-2.23 -0.46,0 -1.06,0.16 -1.06,0.71z"/>
   <path class="fil1" d="M24.98 62.24c0,0.9 0.6,0.88 1.66,1.16 1.87,0.48 2.43,-1.98 -0.84,-1.98 -0.55,0 -0.82,0.28 -0.82,0.82z"/>
   <path class="fil1" d="M6.34 24.16c0,1.21 1.36,1.33 1.87,0.1 0.14,-0.35 0.48,-0.93 0.48,-1.28 0,-0.97 -1.24,-1.42 -1.84,-0.2 -0.13,0.26 -0.51,1.13 -0.51,1.38z"/>
   <path class="fil1" d="M9.04 19.35c0,0.85 0.34,0.94 1.05,0.94 0.34,0 2.54,-2.15 0.95,-2.83 -0.95,-0.4 -2,1.49 -2,1.89z"/>
  </g>
 </g>
</svg>
