<?xml version="1.0" encoding="UTF-8"?>
<!DOCTYPE svg PUBLIC "-//W3C//DTD SVG 1.1//EN" "http://www.w3.org/Graphics/SVG/1.1/DTD/svg11.dtd">
<!-- Creator: CorelDRAW 2020 (64-Bit Evaluation Version) -->
<svg xmlns="http://www.w3.org/2000/svg" xml:space="preserve" width="68px" height="68px" version="1.1" style="shape-rendering:geometricPrecision; text-rendering:geometricPrecision; image-rendering:optimizeQuality; fill-rule:evenodd; clip-rule:evenodd"
viewBox="0 0 68 68"
 xmlns:xlink="http://www.w3.org/1999/xlink"
 xmlns:xodm="http://www.corel.com/coreldraw/odm/2003">
 <defs>
  <style type="text/css">
   <![CDATA[
    .str0 {stroke:#BA8523;stroke-width:0.9;stroke-miterlimit:22.9256}
    .fil0 {fill:none}
    .fil1 {fill:#BA8523}
   ]]>
  </style>
 </defs>
 <g id="Layer_x0020_1">
  <metadata id="CorelCorpID_0Corel-Layer"/>
  <rect class="fil0" width="68" height="68"/>
  <g id="_1501144127456">
   <path class="fil1 str0" d="M40.02 48.28l8.2 -8.16c0.4,-0.4 0.7,-0.83 1.11,-1.23l7.05 -7c0.42,-0.42 0.75,-0.75 1.17,-1.17 0.37,-0.36 0.73,-0.95 1.25,-1.06 0.23,1.64 0.07,26.64 0.07,28.98 -1.06,-0.39 -18.69,-10.19 -18.85,-10.36zm-6.4 -44.25l0.66 0c1.84,0.12 2.58,1.26 3.58,2.26l3.27 3.16c0.58,0.57 1.07,1.06 1.64,1.64 0.8,0.79 1.11,1.34 1.78,1.38 2.6,0.14 7.69,-0.36 9.3,0.42 0.73,0.36 1.3,0.78 1.68,1.48 0.56,1.05 0.5,1.14 0.5,2.66 0,1.35 0.31,2.12 -0.89,2.34 -0.42,-0.24 -0.59,-0.1 -0.77,-0.56 -0.16,-0.39 -0.09,-0.97 -0.09,-1.43 0.01,-1.06 0.09,-1.73 -0.53,-2.4 -1,-1.07 -3.65,-0.68 -5.33,-0.68l-29.85 0c-6.01,0 -4.82,-0.61 -4.82,13.14 0,0.98 0.02,1.96 0.01,2.93 -0.01,1.58 0.1,1.26 0.95,2.11 1.02,1.02 1.96,1.96 2.99,2.98l11.99 11.91c1.42,-0.42 2.46,-1.79 4.33,-1.79 1.87,0 2.94,1.38 4.33,1.79 0.66,-0.48 12.96,-12.86 14.82,-14.71 0.79,-0.8 1.09,-0.85 1.12,-1.58l-0.01 -8.08c0,-1.11 -0.1,-1.54 0.93,-1.73 1.55,0.16 0.35,1.98 0.98,2.97 0.5,0.81 3.02,2.57 3.93,4.03 0.57,0.92 0.59,1.81 0.59,3.27l0 23.76c0,2.46 0.36,5.65 -0.75,7.1 -0.84,1.1 -1.72,1.46 -2.89,1.57l-3.5 0 -0.06 0 -0.06 0 -0.07 0 -0.06 0 -0.06 0 -0.06 0 -0.06 0 -0.07 0 -0.06 0 -0.06 0 -0.06 0 -0.07 0 -0.06 0 -0.06 0 -0.06 0 -0.06 0 -0.07 0 -0.06 0 -0.06 0 -0.06 0 -0.07 0 -0.06 0 -0.06 0 -0.06 0 -0.06 0 -0.07 0 -0.06 0 -0.06 0 -0.06 0 -0.06 0 -0.07 0 -0.06 0 -0.06 0 -0.06 0 -0.07 0 -0.06 0 -0.06 0 -0.06 0 -0.06 0 -0.07 0 -0.06 0 -0.06 0 -0.06 0 -0.07 0 -0.06 0 -0.06 0 -0.06 0 -0.06 0 -0.07 0 -0.06 0 -0.06 0 -0.06 0 -0.07 0 -0.06 0 -0.06 0 -0.06 0 -0.06 0 -0.07 0 -0.06 0 -0.06 0 -0.06 0 -0.07 0 -0.06 0 -0.06 0 -2.33 0c-0.42,-0.08 -0.64,-0.29 -0.74,-0.82 0.12,-0.65 0.26,-0.89 0.96,-0.94l5.51 0c2.26,0 5.24,0.57 5.81,-1.51 -0.74,-0.52 -2.21,-1.27 -3.06,-1.71 -2.77,-1.43 -6.3,-3.49 -9.21,-5.07 -1.61,-0.88 -11.57,-6.57 -12.51,-6.57 -1.14,0 -18.89,10.14 -21.79,11.68 -0.92,0.48 -2.19,1.13 -2.99,1.67 0.41,1.48 1.56,1.51 3.24,1.51l28.21 0c2.36,0 3.58,-0.36 3.77,0.94 -0.08,0.53 -0.31,0.74 -0.74,0.82l-2.21 0 -30 0c-1.26,-0.01 -2.07,-0.22 -2.74,-0.85 -1.72,-1.6 -1.44,-2.84 -1.44,-5.94l0.03 -13.09c0.08,-0.56 0.26,-0.8 0.91,-0.87 1.28,0.21 0.89,1.88 0.89,3.19l0 12.25c0.8,-0.29 1.78,-0.91 2.53,-1.34l7.03 -3.86c1.55,-0.9 3.11,-1.66 4.68,-2.57 0.74,-0.43 4.33,-2.27 4.62,-2.61l-17.51 -17.57c-0.49,-0.49 -0.83,-0.98 -1.27,-1.06 -0.21,1.36 -0.08,7.27 -0.08,9.38 0,1.07 0.23,1.92 -0.89,2.11 -1.16,-0.11 -0.94,-1.13 -0.94,-2.34 0,-1.05 0,-2.11 0,-3.16 0,-3.62 -0.65,-6.32 1.38,-8.34l1.64 -1.52c0.31,-0.29 1.46,-1.37 1.59,-1.69 0.19,-0.48 0.08,-5.44 0.08,-6.36 0,-1.59 -0.18,-3.58 1.79,-4.65 0.72,-0.39 1.47,-0.61 2.53,-0.62 2.14,-0.03 4.31,-0.01 6.45,0 1.4,0.01 0.96,0.15 2.19,-1.08l3.22 -3.22c0.57,-0.57 1.06,-0.95 1.64,-1.52 0.96,-0.96 2.07,-2.49 3.78,-2.61zm22.46 22.64c0.45,0.42 1.29,0.99 1.52,1.65 -0.55,0.37 -0.95,1.1 -1.55,1.36l0.03 -3.01zm-45.63 1.65c0.24,-0.67 1.06,-1.2 1.54,-1.64l0 3c-0.61,-0.28 -0.98,-0.99 -1.54,-1.36zm15.97 -15.78c0.25,-0.46 0.92,-1 1.34,-1.41l2.26 -2.2c0.65,-0.63 1.2,-1.16 1.85,-1.78 1.94,-1.88 2.38,-1.87 4.37,0.05 0.75,0.72 4.78,4.47 5.39,5.34l-15.21 0z"/>
   <path class="fil1 str0" d="M33.06 25.17c1.69,-0.59 2.73,1.02 2.83,2.51 0.11,1.58 -0.6,3.25 -1.83,3.54 -2.87,0.7 -4.09,-4.98 -1,-6.05zm3.22 6.79c0.56,1.79 3.71,2.13 5.24,-0.06 3.88,-5.52 -1.51,-13.97 -9.13,-12.41 -9.88,2.02 -9.32,16.31 0.76,17.47 2,0.23 1.93,-1.43 0.86,-1.67 -1.48,-0.34 -1.84,-0.14 -3.23,-0.86 -1.6,-0.82 -3.02,-2.42 -3.56,-4.5 -1.24,-4.78 2.6,-8.96 7.04,-8.85 4.38,0.11 8.09,4.25 6.27,9.01 -0.28,0.74 -1.28,2.15 -2.41,1.46 -0.73,-0.46 -0.46,-2.65 -0.46,-3.64 0.01,-1.31 0.08,-2.81 0.03,-4.1 -0.07,-1.4 -1.73,-1.6 -1.76,0.17 -0.89,-0.38 -1.34,-0.79 -2.61,-0.66 -2.36,0.25 -4.02,2.49 -3.8,5.27 0.15,1.86 1.14,3.27 2.25,3.92 2.24,1.32 3.61,-0.07 4.51,-0.55z"/>
  </g>
 </g>
</svg>
