<?xml version="1.0" encoding="UTF-8"?>
<!DOCTYPE svg PUBLIC "-//W3C//DTD SVG 1.1//EN" "http://www.w3.org/Graphics/SVG/1.1/DTD/svg11.dtd">
<!-- Creator: CorelDRAW 2020 (64-Bit Evaluation Version) -->
<svg xmlns="http://www.w3.org/2000/svg" xml:space="preserve" width="68px" height="68px" version="1.1" style="shape-rendering:geometricPrecision; text-rendering:geometricPrecision; image-rendering:optimizeQuality; fill-rule:evenodd; clip-rule:evenodd"
viewBox="0 0 68 68"
 xmlns:xlink="http://www.w3.org/1999/xlink"
 xmlns:xodm="http://www.corel.com/coreldraw/odm/2003">
 <defs>
  <style type="text/css">
   <![CDATA[
    .fil0 {fill:none}
    .fil1 {fill:#BA8523}
   ]]>
  </style>
 </defs>
 <g id="Layer_x0020_1">
  <metadata id="CorelCorpID_0Corel-Layer"/>
  <rect class="fil0" width="68" height="68"/>
  <g id="_1503068388032">
   <path class="fil1" d="M23.44 56.18c0,-1 0.52,-1.53 1.52,-1.53l18.08 0c1,0 1.52,0.53 1.52,1.53l0 5.52 -21.12 0 0 -5.52zm27.11 -31.57l0 0zm-33.1 0l0 0zm1.29 -8.33l0 -8.45c0,-1 0.53,-1.53 1.53,-1.53l27.46 0c1,0 1.53,0.53 1.53,1.53 0,9.23 0.78,15.35 -4.41,22.82l-1.03 1.32c-2.87,3.35 -4.68,4.01 -6.15,5.58 -0.66,0.69 -1.32,2.17 -1.32,3.49l0 7.98c0,1.01 1.77,1 2.19,1.21 1.03,0.48 1.15,1.33 1.33,2.08l-11.74 0c0.18,-0.75 0.3,-1.59 1.33,-2.08 0.39,-0.19 2.19,-0.2 2.19,-1.21l0 -7.98c0,-1.28 -0.64,-2.74 -1.26,-3.43 -1,-1.12 -1.46,-1.22 -2.57,-2.12 -1.88,-1.53 -3.19,-2.8 -4.62,-4.77 -1.2,-1.67 -2.46,-4.05 -3.18,-6.21 -0.78,-2.34 -1.28,-5.08 -1.28,-8.23zm31.81 8.33c0.01,-0.53 0.17,-0.87 0.3,-1.34 0.3,-1.05 0.66,-3.41 0.75,-4.53 0.16,-2.06 0,-4.89 0,-7.04 4.16,0 5.14,-0.73 4.48,3.78 -0.14,0.97 -0.27,1.61 -0.49,2.44 -0.76,2.94 -2.41,5.3 -5.04,6.69zm-33.1 0c-2.62,-1.39 -4.23,-3.69 -5.02,-6.59 -0.23,-0.85 -0.37,-1.51 -0.5,-2.44 -0.64,-4.52 0.06,-3.88 4.47,-3.88 0,3.88 -0.3,7.72 0.72,11.48 0.12,0.42 0.32,0.87 0.33,1.43zm-1.05 -17.48l0 2.23 -3.88 0c-1.48,0 -3.16,1.68 -3.16,3.16 0,2.7 0.15,4.47 0.98,6.89 1.31,3.81 3.89,6.86 7.84,8.12 0.75,0.23 0.57,0.26 1.15,1.42 1.66,3.33 4.06,6.03 6.9,8.36 1.4,1.16 2.65,1.42 3.01,3.68 0.25,1.57 0.07,4.95 0.07,6.74 -1.3,0.3 -2.54,1.37 -3.1,2.54 -0.35,0.72 -0.42,1.29 -0.42,2.04l-1.53 0c-1.48,0 -3.17,1.68 -3.17,3.17l0 7.62c0,0.35 0.6,0.94 0.94,0.94l23.94 0c0.34,0 0.94,-0.59 0.94,-0.94l0 -7.62c0,-1.49 -1.69,-3.17 -3.17,-3.17l-1.53 0c0,-2.41 -1.68,-4.15 -3.52,-4.58 0,-3.16 -0.63,-7.25 1.14,-8.95 0.86,-0.82 2.31,-1.61 4.53,-3.81 1.48,-1.47 3.36,-4.09 4.27,-5.94 0.87,-1.75 0.31,-1.2 1.64,-1.64 1.42,-0.48 3.16,-1.61 4.18,-2.63 3.2,-3.19 4.19,-7.71 4.19,-12.24 0,-1.48 -1.68,-3.16 -3.16,-3.16l-3.88 0 0 -2.23c0,-1.48 -1.69,-3.17 -3.17,-3.17l-28.86 0c-1.48,0 -3.17,1.69 -3.17,3.17z"/>
   <path class="fil1" d="M28.37 18.98c0.75,0 3.43,-0.31 3.9,-0.79 0.25,-0.25 1.52,-2.79 1.61,-3.2 0.57,0.42 0.92,2.16 1.69,3.13 0.41,0.52 1.06,0.49 1.75,0.59 0.73,0.1 1.47,0.27 2.2,0.27 -0.56,0.83 -1.9,1.71 -2.42,2.51 -0.61,0.91 0.27,2.65 0.3,4.06 -1.78,-0.41 -2.75,-2.28 -4.48,-1.2l-2.44 1.2c0.15,-0.66 0.24,-1.37 0.38,-2.08 0.59,-3.02 -0.91,-2.12 -2.49,-4.49zm0.11 3.64l-0.55 3.66c-0.09,0.45 -0.32,1.38 -0.23,1.81 0.1,0.49 0.67,0.98 1.14,0.98 0.8,0 4.58,-2.46 5.16,-2.46 0.15,0 2.16,1.07 2.51,1.25 0.51,0.26 2,1.21 2.54,1.21 0.49,0 1.17,-0.57 1.17,-1.05 0,-0.84 -0.25,-1.84 -0.39,-2.67 -0.54,-3.26 -0.99,-2.56 1.65,-4.76 0.43,-0.37 1.91,-1.72 1.91,-2.32 0,-1.54 -2.24,-1.46 -4.44,-1.78 -1.96,-0.27 -1.64,0.07 -2.42,-1.8 -0.21,-0.53 -0.44,-0.92 -0.69,-1.42 -0.43,-0.86 -0.83,-2.27 -1.96,-2.27 -0.83,0 -1.18,1.08 -1.44,1.6l-1.56 3.14c-0.28,0.57 -0.21,0.5 -0.91,0.61 -0.97,0.16 -4.68,0.45 -5.15,1.08 -0.58,0.76 -0.12,1.56 0.48,2.04 0.34,0.27 3.18,2.94 3.18,3.15z"/>
   <path class="fil1" d="M28.13 57.94c0,0.65 0.27,1.41 0.94,1.41l5.17 0c0.66,0 0.93,-0.76 0.93,-1.41 0,-0.34 -0.59,-0.94 -0.93,-0.94l-5.17 0c-0.34,0 -0.94,0.6 -0.94,0.94z"/>
   <path class="fil1" d="M37.52 57.94c0,2.16 2.35,1.46 2.35,0.47 0,-2.16 -2.35,-1.46 -2.35,-0.47z"/>
  </g>
 </g>
</svg>
