<?xml version="1.0" encoding="UTF-8"?>
<!DOCTYPE svg PUBLIC "-//W3C//DTD SVG 1.1//EN" "http://www.w3.org/Graphics/SVG/1.1/DTD/svg11.dtd">
<!-- Creator: CorelDRAW 2020 (64-Bit Evaluation Version) -->
<svg xmlns="http://www.w3.org/2000/svg" xml:space="preserve" width="68px" height="68px" version="1.1" style="shape-rendering:geometricPrecision; text-rendering:geometricPrecision; image-rendering:optimizeQuality; fill-rule:evenodd; clip-rule:evenodd"
viewBox="0 0 68 68"
 xmlns:xlink="http://www.w3.org/1999/xlink"
 xmlns:xodm="http://www.corel.com/coreldraw/odm/2003">
 <defs>
  <style type="text/css">
   <![CDATA[
    .str0 {stroke:#BA8523;stroke-width:3;stroke-miterlimit:22.9256}
    .str1 {stroke:#BA8523;stroke-width:0.9;stroke-miterlimit:22.9256}
    .fil0 {fill:none}
    .fil1 {fill:#BA8523}
   ]]>
  </style>
 </defs>
 <g id="Layer_x0020_1">
  <metadata id="CorelCorpID_0Corel-Layer"/>
  <g id="_1501120844256">
   <circle class="fil0 str0" cx="34" cy="34" r="30"/>
   <path class="fil1 str1" d="M27.62 32.26l0 -11c2.06,0.99 5.54,0.56 7.6,-0.06 0.6,-0.17 1.16,-0.3 1.76,-0.49 1.25,-0.41 3.17,-0.93 4.48,-1.12 1.3,-0.18 2.73,-0.11 3.99,0.31 0.29,0.1 0.53,0.26 0.83,0.33l0 11c-2.06,-0.98 -5.54,-0.55 -7.6,0.06l-3.49 1.01c-0.61,0.17 -1.19,0.31 -1.81,0.44 -0.34,0.07 -0.62,0.12 -0.94,0.16 -0.35,0.05 -0.7,0.04 -1.07,0.09 -0.82,0.11 -2.11,-0.13 -2.92,-0.4 -0.28,-0.09 -0.53,-0.26 -0.83,-0.33zm-1.1 -14.73l0.16 0c0.33,0.03 0.65,0.2 0.81,0.52 0.14,0.26 0.13,0.69 0.13,1.09 0.22,0.05 0.56,0.23 0.78,0.31 4.26,1.6 9.05,-1.62 13.88,-1.92l1.36 0c0.9,0.06 1.79,0.24 2.69,0.6 0.7,0.28 1.94,0.69 1.94,1.59l0 13.06c0,0.57 -0.42,0.97 -0.91,1.01 -0.36,0.03 -1.06,-0.39 -1.36,-0.54 -4.87,-2.45 -11.42,2.83 -17.03,1.52l-1.35 -0.38c0,2.83 0,5.66 0,8.49 0,1.94 0.05,4.48 0,6.37 -0.02,0.86 -0.46,1.19 -0.91,1.22l-0.16 0c-0.26,-0.02 -0.5,-0.13 -0.65,-0.28 -0.1,-0.11 -0.27,-0.43 -0.27,-0.62l0 -31.14c0,-0.21 0.19,-0.54 0.31,-0.66 0.16,-0.14 0.37,-0.22 0.58,-0.24z"/>
  </g>
 </g>
</svg>
