<?xml version="1.0" encoding="UTF-8"?>
<!DOCTYPE svg PUBLIC "-//W3C//DTD SVG 1.1//EN" "http://www.w3.org/Graphics/SVG/1.1/DTD/svg11.dtd">
<!-- Creator: CorelDRAW 2020 (64-Bit Evaluation Version) -->
<svg xmlns="http://www.w3.org/2000/svg" xml:space="preserve" width="45px" height="45px" version="1.1" style="shape-rendering:geometricPrecision; text-rendering:geometricPrecision; image-rendering:optimizeQuality; fill-rule:evenodd; clip-rule:evenodd"
viewBox="0 0 45 45"
 xmlns:xlink="http://www.w3.org/1999/xlink"
 xmlns:xodm="http://www.corel.com/coreldraw/odm/2003">
 <defs>
  <style type="text/css">
   <![CDATA[
    .str0 {stroke:#BA8523;stroke-width:1.5;stroke-miterlimit:22.9256}
    .fil0 {fill:none}
    .fil1 {fill:#BA8523}
   ]]>
  </style>
 </defs>
 <g id="Layer_x0020_1">
  <metadata id="CorelCorpID_0Corel-Layer"/>
  <g id="_1501299729536">
   <circle class="fil0 str0" cx="22.5" cy="22.5" r="20"/>
   <g>
    <path class="fil1" d="M15.27 18.84c0,-4.63 4.44,-8.11 8.82,-7.04 1.4,0.34 2.51,0.94 3.51,1.94 1.94,1.95 2.57,4.71 1.79,7.36 -0.38,1.27 -0.74,2.13 -1.33,3.3l-1.21 2.11c-0.35,0.55 -4.05,6.03 -4.35,6.25 -0.15,-0.1 -2.86,-4 -3.28,-4.62 -1.59,-2.39 -3.35,-5.2 -3.83,-8.07 -0.06,-0.34 -0.12,-0.88 -0.12,-1.23zm-1.44 -0.39c0,2.45 0.41,3.43 1.28,5.52 0.87,2.1 2.7,4.69 3.98,6.57 0.21,0.31 0.41,0.59 0.64,0.9l1.56 2.2c0.28,0.43 0.7,1.19 1.11,1.19 0.64,0 0.6,-0.2 0.98,-0.7 0.96,-1.29 2.14,-3.12 3.13,-4.44l2.86 -4.65c0.84,-1.68 1.8,-3.91 1.8,-5.82 0,-1.58 -0.15,-2.75 -0.82,-4.09 -0.66,-1.35 -1.61,-2.51 -2.84,-3.38 -1.25,-0.88 -2.96,-1.58 -4.67,-1.58 -1.57,0 -2.74,0.17 -4.05,0.81 -0.48,0.24 -0.88,0.48 -1.3,0.77 -0.44,0.31 -0.74,0.58 -1.12,0.96 -0.74,0.74 -1.26,1.48 -1.72,2.42 -0.39,0.77 -0.82,2.17 -0.82,3.32z"/>
    <path class="fil1" d="M19.61 18.84c0,-0.82 0.43,-1.62 0.85,-2.04 1.12,-1.12 2.96,-1.12 4.08,0 1.84,1.84 0.45,4.93 -2.04,4.93 -0.82,0 -1.62,-0.44 -2.04,-0.86 -0.42,-0.41 -0.85,-1.22 -0.85,-2.03zm-1.45 -0.24c0,1.16 0.15,1.8 0.78,2.73 0.71,1.03 2.05,1.84 3.32,1.84 1.36,0 2.36,-0.31 3.31,-1.26 0.2,-0.2 0.3,-0.31 0.47,-0.55 2.17,-3.12 -0.35,-6.86 -3.3,-6.86 -1.16,0 -1.8,0.14 -2.74,0.78 -0.58,0.4 -1.11,1.02 -1.42,1.66 -0.2,0.4 -0.42,1.09 -0.42,1.66z"/>
   </g>
  </g>
 </g>
</svg>
