<?xml version="1.0" encoding="UTF-8"?>
<!DOCTYPE svg PUBLIC "-//W3C//DTD SVG 1.1//EN" "http://www.w3.org/Graphics/SVG/1.1/DTD/svg11.dtd">
<!-- Creator: CorelDRAW 2020 (64-Bit Evaluation Version) -->
<svg xmlns="http://www.w3.org/2000/svg" xml:space="preserve" width="45px" height="45px" version="1.1" style="shape-rendering:geometricPrecision; text-rendering:geometricPrecision; image-rendering:optimizeQuality; fill-rule:evenodd; clip-rule:evenodd"
viewBox="0 0 45 45"
 xmlns:xlink="http://www.w3.org/1999/xlink"
 xmlns:xodm="http://www.corel.com/coreldraw/odm/2003">
 <defs>
  <style type="text/css">
   <![CDATA[
    .str0 {stroke:#BA8523;stroke-width:1.5;stroke-miterlimit:22.9256}
    .fil0 {fill:none}
    .fil1 {fill:#BA8523}
   ]]>
  </style>
 </defs>
 <g id="Layer_x0020_1">
  <metadata id="CorelCorpID_0Corel-Layer"/>
  <g id="_1501300801392">
   <circle class="fil0 str0" cx="22.5" cy="22.5" r="20"/>
   <g>
    <path class="fil1" d="M26.14 27.73c0.57,-2.09 2.46,0.24 3.18,0.96 1.51,1.51 2.83,2.24 1.18,3.35l-4.36 -4.31zm0.34 7.1l-1.07 0c-2.19,-0.08 -4.4,-0.69 -6.09,-1.54 -0.85,-0.43 -1.61,-0.82 -2.37,-1.39 -3.23,-2.44 -6.03,-6.17 -6.59,-10.37 -0.15,-1.16 -0.19,-1.3 -0.19,-1.8l0 -1.18c0,-2.66 1.69,-6.89 4.41,-6.24 0.54,0.12 0.49,0.16 0.87,0.47 0.69,0.55 3.65,3.47 4,4.1 1.05,1.89 -1.04,3.14 -2.29,4.04 -0.3,0.21 -0.83,0.46 -0.83,0.91 0,0.57 2.72,3.05 3.25,3.59 3.22,3.21 3.35,4 4.52,2.44 1.21,-1.63 1.48,-2.47 3.12,-2.47 1.28,0 3.52,2.61 4.65,3.73 1.96,1.95 0.5,3.7 -1.4,4.72 -1.18,0.63 -2.56,0.93 -3.99,0.99zm-14.29 -18.88l3.88 3.83c-0.24,0.34 -0.5,0.38 -0.77,0.72 -0.41,0.5 -0.41,0.91 -0.41,1.52 0,1.12 1.41,2.23 2.05,2.86 0.92,0.93 4.2,4.33 4.97,4.86 0.82,0.58 1.92,0.59 2.69,-0.13 0.24,-0.22 0.4,-0.51 0.6,-0.65l3.88 3.83c-0.44,0.22 -1.22,0.38 -1.8,0.46 -0.35,0.06 -0.65,0.03 -1,0.07 -1.11,0.15 -3.77,-0.34 -4.8,-0.74 -0.62,-0.24 -0.98,-0.39 -1.55,-0.67 -2.93,-1.47 -4.7,-3.15 -6.39,-5.95l-0.77 -1.53c-0.62,-1.39 -0.98,-2.91 -1.06,-4.63 -0.06,-1.15 -0.16,-0.32 0.01,-2.01 0.05,-0.5 0.28,-1.45 0.47,-1.84zm0.75 -1.42c1.13,-1.69 1.92,-0.29 3.32,1.1 1.85,1.86 2.67,2.21 1.04,3.31l-4.36 -4.41z"/>
    <path class="fil1" d="M21.83 10.94c0,1.66 3.91,-0.57 8.35,3.88 1.04,1.03 1.82,2.18 2.41,3.66 0.31,0.78 0.49,1.39 0.64,2.35 0.21,1.48 -0.15,2.34 1.03,2.34 0.42,0 0.54,-0.38 0.57,-0.76l0 -0.68c0,-1.5 -0.66,-3.56 -1.18,-4.59 -2.13,-4.23 -6.16,-6.97 -11.05,-6.97 -0.47,0 -0.77,0.3 -0.77,0.77z"/>
    <path class="fil1" d="M21.83 13.83c0,1.4 2.82,-0.05 5.7,2.48l0.63 0.53c0.65,0.64 1.5,1.96 1.8,2.83 0.2,0.59 0.38,1.18 0.44,1.87 0.09,1.15 0.03,1.63 0.96,1.63 1.31,0 0.29,-4.24 -1.14,-6.18 -1.85,-2.51 -4.53,-3.93 -7.82,-3.93 -0.31,0 -0.57,0.42 -0.57,0.77z"/>
    <path class="fil1" d="M21.83 16.53c0,1.73 1.87,0.01 4.26,2.38 2.44,2.43 0.64,4.26 2.38,4.26 1.09,0 0.75,-3.24 -1.37,-5.37 -1.83,-1.84 -5.27,-2.44 -5.27,-1.27z"/>
    <path class="fil1" d="M21.83 19.42c0,0.28 -0.04,0.57 0.37,0.78 0.18,0.11 0.49,0.13 0.7,0.17 0.52,0.1 0.83,0.25 1.17,0.56 1.06,0.97 0.1,2.24 1.51,2.24 0.87,0 0.82,-1.89 -0.41,-3.24 -1.05,-1.16 -3.34,-1.51 -3.34,-0.51z"/>
   </g>
  </g>
 </g>
</svg>
