<?xml version="1.0" encoding="UTF-8"?>
<!DOCTYPE svg PUBLIC "-//W3C//DTD SVG 1.1//EN" "http://www.w3.org/Graphics/SVG/1.1/DTD/svg11.dtd">
<!-- Creator: CorelDRAW 2020 (64-Bit Evaluation Version) -->
<svg xmlns="http://www.w3.org/2000/svg" xml:space="preserve" width="45px" height="45px" version="1.1" style="shape-rendering:geometricPrecision; text-rendering:geometricPrecision; image-rendering:optimizeQuality; fill-rule:evenodd; clip-rule:evenodd"
viewBox="0 0 45 45"
 xmlns:xlink="http://www.w3.org/1999/xlink"
 xmlns:xodm="http://www.corel.com/coreldraw/odm/2003">
 <defs>
  <style type="text/css">
   <![CDATA[
    .str0 {stroke:#BA8523;stroke-width:1.5;stroke-miterlimit:22.9256}
    .str1 {stroke:#BA8523;stroke-width:0.9;stroke-miterlimit:22.9256}
    .fil0 {fill:none}
    .fil1 {fill:#BA8523}
   ]]>
  </style>
 </defs>
 <g id="Layer_x0020_1">
  <metadata id="CorelCorpID_0Corel-Layer"/>
  <circle class="fil0 str0" cx="22.5" cy="22.5" r="20"/>
  <g id="_1501298209024">
   <path class="fil1 str1" d="M24.98 27.04l3.37 -3.36c0.17,-0.17 0.29,-0.34 0.46,-0.51l2.9 -2.88c0.17,-0.17 0.31,-0.31 0.48,-0.48 0.15,-0.15 0.3,-0.39 0.52,-0.44 0.09,0.68 0.03,10.97 0.03,11.93 -0.44,-0.16 -7.7,-4.19 -7.76,-4.26zm-2.64 -18.22l0.28 0c0.75,0.05 1.06,0.52 1.47,0.93l1.35 1.3c0.23,0.24 0.43,0.44 0.67,0.68 0.33,0.32 0.45,0.55 0.73,0.57 1.07,0.05 3.17,-0.15 3.83,0.17 0.3,0.15 0.53,0.32 0.69,0.61 0.23,0.43 0.21,0.47 0.21,1.09 0,0.56 0.12,0.88 -0.37,0.97 -0.17,-0.1 -0.24,-0.04 -0.32,-0.23 -0.06,-0.16 -0.03,-0.41 -0.03,-0.59 0,-0.44 0.03,-0.71 -0.22,-0.99 -0.41,-0.44 -1.5,-0.28 -2.19,-0.28l-12.29 0c-2.47,0 -1.98,-0.25 -1.98,5.41 0,0.4 0,0.8 0,1.21 0,0.64 0.04,0.51 0.39,0.86 0.42,0.42 0.81,0.81 1.23,1.23l4.94 4.9c0.58,-0.17 1.01,-0.74 1.78,-0.74 0.77,0 1.21,0.57 1.78,0.74 0.27,-0.2 5.34,-5.29 6.1,-6.05 0.32,-0.33 0.45,-0.35 0.46,-0.65l0 -3.33c0,-0.46 -0.05,-0.63 0.38,-0.71 0.64,0.06 0.15,0.81 0.4,1.22 0.21,0.34 1.25,1.06 1.62,1.66 0.24,0.38 0.24,0.74 0.24,1.35l0 9.78c0,1.01 0.15,2.32 -0.3,2.92 -0.35,0.45 -0.71,0.6 -1.2,0.64l-1.44 0 -0.02 0 -0.03 0 -0.02 0 -0.03 0 -0.02 0 -0.03 0 -0.02 0 -0.03 0 -0.03 0 -0.02 0 -0.03 0 -0.02 0 -0.03 0 -0.02 0 -0.03 0 -0.02 0 -0.03 0 -0.03 0 -0.02 0 -0.03 0 -0.02 0 -0.03 0 -0.02 0 -0.03 0 -0.02 0 -0.03 0 -0.03 0 -0.02 0 -0.03 0 -0.02 0 -0.03 0 -0.02 0 -0.03 0 -0.02 0 -0.03 0 -0.03 0 -0.02 0 -0.03 0 -0.02 0 -0.03 0 -0.02 0 -0.03 0 -0.03 0 -0.02 0 -0.03 0 -0.02 0 -0.03 0 -0.02 0 -0.03 0 -0.02 0 -0.03 0 -0.03 0 -0.02 0 -0.03 0 -0.02 0 -0.03 0 -0.02 0 -0.03 0 -0.03 0 -0.02 0 -0.03 0 -0.02 0 -0.03 0 -0.02 0 -0.96 0c-0.17,-0.03 -0.27,-0.12 -0.31,-0.34 0.05,-0.26 0.11,-0.36 0.4,-0.38l2.26 0c0.94,0 2.16,0.23 2.4,-0.62 -0.31,-0.21 -0.91,-0.52 -1.27,-0.71 -1.13,-0.58 -2.58,-1.43 -3.78,-2.08 -0.67,-0.37 -4.77,-2.71 -5.15,-2.71 -0.47,0 -7.78,4.18 -8.97,4.81 -0.38,0.2 -0.9,0.47 -1.23,0.69 0.17,0.61 0.64,0.62 1.33,0.62l11.62 0c0.96,0 1.47,-0.15 1.55,0.38 -0.04,0.22 -0.13,0.31 -0.31,0.34l-0.91 0 -12.35 0c-0.52,0 -0.85,-0.09 -1.13,-0.35 -0.7,-0.66 -0.59,-1.16 -0.59,-2.44l0.01 -5.39c0.04,-0.23 0.11,-0.33 0.38,-0.36 0.53,0.09 0.37,0.77 0.37,1.32l0 5.04c0.32,-0.12 0.73,-0.38 1.04,-0.55l2.89 -1.59c0.64,-0.37 1.28,-0.69 1.93,-1.06 0.3,-0.18 1.78,-0.93 1.9,-1.07l-7.21 -7.24c-0.2,-0.2 -0.34,-0.4 -0.52,-0.43 -0.09,0.56 -0.04,2.99 -0.03,3.86 0,0.44 0.09,0.79 -0.37,0.87 -0.48,-0.05 -0.39,-0.47 -0.39,-0.97 0.01,-0.43 0,-0.86 0,-1.3 0,-1.49 -0.27,-2.6 0.57,-3.43l0.68 -0.63c0.12,-0.11 0.6,-0.56 0.65,-0.69 0.08,-0.2 0.03,-2.24 0.03,-2.62 0,-0.65 -0.07,-1.47 0.74,-1.91 0.3,-0.16 0.61,-0.25 1.04,-0.26 0.88,-0.01 1.78,0 2.66,0 0.57,0.01 0.39,0.06 0.9,-0.44l1.32 -1.33c0.24,-0.23 0.44,-0.39 0.68,-0.62 0.39,-0.4 0.85,-1.03 1.55,-1.08zm9.25 9.32c0.18,0.18 0.53,0.41 0.62,0.68 -0.23,0.15 -0.39,0.45 -0.64,0.56l0.02 -1.24zm-18.78 0.68c0.1,-0.28 0.43,-0.49 0.63,-0.68l0 1.24c-0.25,-0.12 -0.4,-0.41 -0.63,-0.56zm6.57 -6.49c0.1,-0.19 0.38,-0.42 0.55,-0.59l0.93 -0.9c0.27,-0.26 0.5,-0.48 0.76,-0.73 0.8,-0.78 0.98,-0.77 1.8,0.02 0.31,0.29 1.97,1.84 2.22,2.2l-6.26 0z"/>
   <path class="fil1 str1" d="M22.11 17.52c0.7,-0.24 1.13,0.42 1.17,1.04 0.04,0.65 -0.25,1.33 -0.76,1.46 -1.18,0.28 -1.68,-2.05 -0.41,-2.5zm1.33 2.8c0.23,0.74 1.53,0.87 2.16,-0.03 1.59,-2.27 -0.63,-5.75 -3.76,-5.1 -4.07,0.83 -3.84,6.71 0.31,7.19 0.82,0.09 0.8,-0.59 0.36,-0.69 -0.61,-0.14 -0.76,-0.06 -1.34,-0.35 -0.65,-0.34 -1.24,-1 -1.46,-1.86 -0.51,-1.96 1.07,-3.69 2.9,-3.64 1.8,0.05 3.32,1.75 2.58,3.71 -0.12,0.3 -0.53,0.89 -1,0.6 -0.3,-0.19 -0.19,-1.09 -0.18,-1.5 0,-0.54 0.03,-1.15 0.01,-1.69 -0.03,-0.57 -0.71,-0.66 -0.73,0.07 -0.36,-0.15 -0.55,-0.32 -1.07,-0.27 -0.97,0.1 -1.65,1.03 -1.56,2.17 0.06,0.77 0.46,1.35 0.92,1.62 0.92,0.54 1.49,-0.04 1.86,-0.23z"/>
  </g>
 </g>
</svg>
