<?xml version="1.0" encoding="UTF-8"?>
<!DOCTYPE svg PUBLIC "-//W3C//DTD SVG 1.1//EN" "http://www.w3.org/Graphics/SVG/1.1/DTD/svg11.dtd">
<!-- Creator: CorelDRAW 2020 (64-Bit Evaluation Version) -->
<svg xmlns="http://www.w3.org/2000/svg" xml:space="preserve" width="68px" height="68px" version="1.1" style="shape-rendering:geometricPrecision; text-rendering:geometricPrecision; image-rendering:optimizeQuality; fill-rule:evenodd; clip-rule:evenodd"
viewBox="0 0 68 68"
 xmlns:xlink="http://www.w3.org/1999/xlink"
 xmlns:xodm="http://www.corel.com/coreldraw/odm/2003">
 <defs>
  <style type="text/css">
   <![CDATA[
    .fil0 {fill:none}
    .fil1 {fill:#BA8523}
   ]]>
  </style>
 </defs>
 <g id="Layer_x0020_1">
  <metadata id="CorelCorpID_0Corel-Layer"/>
  <rect class="fil0" width="68" height="68"/>
  <path class="fil1" d="M41.15 61.07c0.27,-0.41 0.64,-0.65 0.95,-1.04 2.22,-2.77 3.31,-4.18 4.69,-7.62 0.18,-0.43 0.37,-1.12 0.57,-1.54 1.83,0.16 6.22,2.36 6.68,2.47 -0.15,0.57 -1.99,2.08 -2.59,2.56 -2.9,2.29 -6.64,4.32 -10.3,5.17zm22.85 -28.04l0 1.66c-0.11,4.32 -1.08,8.62 -2.81,12.08 -2.21,4.4 -4.87,8.07 -8.88,11.05 -0.37,0.28 -0.63,0.48 -1,0.76 -4.05,3.03 -11.01,5.42 -16.26,5.42l-1.99 0c-3.92,0 -9.93,-1.57 -13.07,-3.45 -3.08,-1.84 -2.69,-1.55 -5.38,-3.65 -2.33,-1.82 -4.3,-4.39 -5.95,-6.82 -0.59,-0.88 -1.52,-2.53 -1.91,-3.47 -2.12,-5.1 -2.75,-7.85 -2.75,-13.55 0,-4.61 1.5,-9.27 3.11,-12.48 0.59,-1.19 1.62,-2.96 2.36,-3.96 1.48,-1.96 1.69,-2.26 3.35,-3.92 5.03,-5.03 12.68,-8.7 20.36,-8.7 8.22,0 14,2.09 20.14,7.05 1.31,1.05 2.6,2.41 3.68,3.7 1.07,1.26 2.19,2.82 3.01,4.26 0.57,0.99 1.42,2.58 1.81,3.7 0.17,0.49 0.31,0.78 0.49,1.26 1.06,2.75 1.61,5.88 1.69,9.06zm-50.16 20.31c0.39,-0.09 1.18,-0.47 1.57,-0.67 0.88,-0.45 4.37,-1.78 5.23,-1.8 0.07,0.81 0.78,2.19 1.07,2.92 0.6,1.46 2.13,3.84 3.13,5.07 0.62,0.76 1.37,1.43 1.89,2.21 -3.59,-0.84 -7.5,-2.95 -10.27,-5.19 -0.52,-0.42 -0.9,-0.75 -1.41,-1.17l-0.95 -0.93c-0.33,-0.37 -0.11,-0.16 -0.26,-0.44zm21.21 8.55l0 -12.77c4.78,0 9.31,1.15 10.2,1.17 -0.12,1.47 -2.62,5.86 -3.68,7.21 -0.77,0.98 -1.69,1.98 -2.68,2.72 -0.8,0.59 -2.54,1.67 -3.84,1.67zm-12.42 -11.6c1.12,-0.03 5.43,-1.17 10.32,-1.17l0 12.77c-2.28,0 -5.27,-2.53 -6.57,-4.33 -1.63,-2.29 -2.37,-3.72 -3.38,-6.23 -0.13,-0.33 -0.24,-0.76 -0.37,-1.04zm-2.58 -14.3l0 -0.94 12.9 0 0 11.96 -2.9 0.15c-0.81,0.11 -1.89,0.12 -2.78,0.26l-5.34 0.88c-0.22,-0.94 -0.48,-1.88 -0.71,-2.81 -0.58,-2.38 -1.17,-7 -1.17,-9.5zm35.63 15.82l-3.67 -1.6c-0.59,-0.26 -1.4,-0.54 -1.97,-0.73 -0.45,-0.15 -1.65,-0.56 -2.09,-0.6 0.51,-1.08 1.24,-5.08 1.45,-6.51 0.17,-1.14 0.39,-2.39 0.42,-3.57 0.02,-0.71 0.12,-1.05 0.12,-1.87 -0.01,-0.81 0.06,-1.25 0.11,-1.88l11.84 0c0,3.24 -1,7.24 -1.99,9.49 -1.2,2.71 -1.83,3.98 -3.62,6.35 -0.21,0.28 -0.51,0.58 -0.6,0.92zm-9.73 -3.51c-0.76,0 -1.86,-0.33 -2.59,-0.46 -0.91,-0.15 -1.69,-0.26 -2.64,-0.4l-4.26 -0.31c-0.67,0 -0.89,-0.11 -1.41,-0.12l0 -11.96 12.9 0 -0.19 3.57c-0.31,2.15 -0.94,7.88 -1.81,9.68zm-39.96 -13.25l11.96 0c0,3.23 0.45,7.73 1.21,10.74l0.78 3.09c-3.57,0.83 -7.05,2.83 -7.5,2.93 -0.5,-0.33 -2.05,-2.68 -2.43,-3.32 -2.28,-3.84 -4.02,-8.97 -4.02,-13.44zm29.06 -14.06c3.67,0 7.44,-0.48 10.9,-1.29 0.22,0.45 0.63,2.32 0.77,2.98 0.25,1.1 0.43,2.23 0.61,3.27 0.19,1.13 0.27,2.15 0.4,3.34l0.22 3.66 -12.9 0 0 -11.96zm-15 11.14c0,-2.76 0.53,-6.87 1.17,-9.5 0.2,-0.78 0.65,-2.17 0.71,-2.93 3.51,0.82 7.29,1.29 11.02,1.29l0 11.96 -12.9 0 0 -0.82zm28.01 -13.01c1.44,-0.03 5.92,-2.09 7.5,-2.93 0.39,0.57 0.78,1.06 1.19,1.62 0.42,0.56 0.81,1.17 1.16,1.77 2.2,3.67 3.98,8.62 3.98,13.37l-11.84 0c-0.14,-0.61 -0.12,-1.01 -0.11,-1.76 0.03,-4.55 -1.88,-11.53 -1.88,-12.07zm-30.11 13.36l0 0.47 -11.96 0c0,-0.64 0.13,-2 0.24,-2.58 0.14,-0.83 0.25,-1.75 0.44,-2.49 0.79,-3.07 1.68,-5.54 3.28,-8.2l2.37 -3.49c4.05,2.14 6.52,2.52 7.62,3.04 -0.64,2.76 -0.85,3.11 -1.37,6.25 -0.36,2.14 -0.62,4.57 -0.62,7zm17.1 -13.48l0 -12.89c0.96,0.46 1.21,-0.05 3.73,1.66 2.34,1.6 4.63,5.27 5.72,7.88 0.19,0.46 0.71,1.64 0.75,2.06 -0.32,0.15 -1.8,0.4 -2.31,0.5 -0.76,0.15 -1.68,0.24 -2.56,0.38 -1.56,0.23 -3.71,0.28 -5.33,0.41zm-2.1 -12.89l0 12.89c-0.48,-0.04 -0.64,-0.12 -1.29,-0.12 -0.43,0 -0.97,0.03 -1.39,-0.01 -1.82,-0.21 -3.31,-0.29 -5.23,-0.64 -0.51,-0.09 -2.1,-0.37 -2.41,-0.52 0.24,-1 1.17,-2.8 1.64,-3.75 0.31,-0.61 0.59,-1.16 0.96,-1.73 0.38,-0.59 0.72,-1.15 1.14,-1.68 1.07,-1.37 2.76,-3.06 4.43,-3.77 0.8,-0.34 1.25,-0.46 2.15,-0.67zm8.2 0.94c0.8,0.02 3.18,0.99 3.88,1.27 1.12,0.44 2.41,1.15 3.41,1.75 1.04,0.63 2.83,1.88 3.75,2.69l1.97 1.9c-0.36,0.09 -3.82,1.89 -6.8,2.58l-1.14 -2.96c-0.67,-1.57 -2.07,-3.72 -3.13,-5.08l-1.94 -2.15zm-14.42 0c-0.26,0.39 -0.63,0.65 -0.93,1.05 -0.28,0.37 -0.59,0.69 -0.91,1.08 -1.39,1.69 -4.09,6.13 -4.25,8.06 -1.55,-0.36 -2.97,-0.87 -4.38,-1.47l-2.42 -1.11c1.77,-2.63 9.74,-7.35 12.89,-7.61zm14.42 0l0 0zm-14.42 0l0 0z"/>
 </g>
</svg>
