<?xml version="1.0" encoding="UTF-8"?>
<!DOCTYPE svg PUBLIC "-//W3C//DTD SVG 1.1//EN" "http://www.w3.org/Graphics/SVG/1.1/DTD/svg11.dtd">
<!-- Creator: CorelDRAW 2020 (64-Bit Evaluation Version) -->
<svg xmlns="http://www.w3.org/2000/svg" xml:space="preserve" width="68px" height="68px" version="1.1" style="shape-rendering:geometricPrecision; text-rendering:geometricPrecision; image-rendering:optimizeQuality; fill-rule:evenodd; clip-rule:evenodd"
viewBox="0 0 68 68"
 xmlns:xlink="http://www.w3.org/1999/xlink"
 xmlns:xodm="http://www.corel.com/coreldraw/odm/2003">
 <defs>
  <style type="text/css">
   <![CDATA[
    .str1 {stroke:#BA8523;stroke-miterlimit:22.9256}
    .str0 {stroke:#BA8523;stroke-width:3;stroke-miterlimit:22.9256}
    .fil0 {fill:none}
    .fil1 {fill:#BA8523}
   ]]>
  </style>
 </defs>
 <g id="Layer_x0020_1">
  <metadata id="CorelCorpID_0Corel-Layer"/>
  <circle class="fil0 str0" cx="34" cy="34" r="30"/>
  <path class="fil1 str1" d="M37.92 48.86c0.15,-0.22 0.36,-0.35 0.53,-0.57 1.22,-1.52 1.81,-2.29 2.57,-4.18 0.1,-0.24 0.2,-0.61 0.31,-0.85 1.01,0.09 3.42,1.3 3.67,1.36 -0.08,0.31 -1.09,1.14 -1.42,1.4 -1.59,1.26 -3.64,2.37 -5.66,2.84zm12.55 -15.39l0 0.91c-0.06,2.37 -0.59,4.73 -1.54,6.63 -1.22,2.42 -2.68,4.43 -4.88,6.07 -0.2,0.15 -0.34,0.26 -0.55,0.41 -2.22,1.67 -6.04,2.98 -8.92,2.98l-1.09 0c-2.16,0 -5.46,-0.86 -7.18,-1.89 -1.69,-1.01 -1.48,-0.85 -2.95,-2.01 -1.28,-1 -2.37,-2.41 -3.27,-3.74 -0.33,-0.49 -0.84,-1.39 -1.05,-1.91 -1.16,-2.8 -1.51,-4.3 -1.51,-7.43 0,-2.54 0.82,-5.1 1.71,-6.86 0.32,-0.65 0.88,-1.62 1.3,-2.17 0.81,-1.08 0.92,-1.24 1.83,-2.15 2.76,-2.76 6.96,-4.78 11.18,-4.78 4.51,0 7.69,1.15 11.06,3.87 0.71,0.58 1.42,1.32 2.02,2.03 0.58,0.69 1.2,1.55 1.65,2.34 0.31,0.54 0.78,1.42 0.99,2.03 0.1,0.27 0.17,0.43 0.27,0.69 0.58,1.51 0.89,3.23 0.93,4.98zm-27.54 11.15c0.22,-0.05 0.65,-0.26 0.86,-0.37 0.49,-0.24 2.4,-0.97 2.88,-0.99 0.03,0.45 0.42,1.2 0.58,1.6 0.33,0.8 1.17,2.11 1.72,2.79 0.34,0.41 0.75,0.78 1.04,1.21 -1.97,-0.46 -4.12,-1.62 -5.64,-2.85 -0.28,-0.23 -0.49,-0.41 -0.77,-0.64l-0.52 -0.51c-0.18,-0.2 -0.06,-0.09 -0.15,-0.24zm11.65 4.69l0 -7.01c2.62,0 5.11,0.63 5.6,0.64 -0.07,0.81 -1.44,3.22 -2.02,3.97 -0.43,0.53 -0.93,1.08 -1.48,1.48 -0.44,0.33 -1.39,0.92 -2.1,0.92zm-6.82 -6.37c0.61,-0.01 2.98,-0.64 5.66,-0.64l0 7.01c-1.25,0 -2.89,-1.38 -3.6,-2.38 -0.9,-1.25 -1.3,-2.04 -1.86,-3.42 -0.07,-0.18 -0.13,-0.42 -0.2,-0.57zm-1.42 -7.85l0 -0.51 7.08 0 0 6.56 -1.59 0.08c-0.44,0.06 -1.04,0.07 -1.53,0.15l-2.93 0.48c-0.12,-0.52 -0.26,-1.03 -0.38,-1.54 -0.32,-1.31 -0.65,-3.85 -0.65,-5.22zm19.56 8.69l-2.01 -0.88c-0.32,-0.14 -0.77,-0.29 -1.08,-0.4 -0.25,-0.08 -0.91,-0.31 -1.15,-0.33 0.28,-0.59 0.68,-2.79 0.8,-3.57 0.09,-0.63 0.21,-1.32 0.23,-1.96 0.01,-0.4 0.06,-0.58 0.06,-1.03 0,-0.44 0.04,-0.69 0.06,-1.03l6.5 0c0,1.78 -0.55,3.97 -1.09,5.21 -0.66,1.48 -1,2.18 -1.99,3.48 -0.11,0.16 -0.28,0.32 -0.33,0.51zm-5.34 -1.93c-0.42,0 -1.02,-0.18 -1.42,-0.25 -0.5,-0.08 -0.93,-0.14 -1.45,-0.22l-2.34 -0.17c-0.37,0 -0.49,-0.06 -0.77,-0.07l0 -6.56 7.08 0 -0.1 1.96c-0.18,1.18 -0.52,4.32 -1,5.31zm-21.94 -7.27l6.57 0c0,1.77 0.24,4.24 0.66,5.89l0.43 1.7c-1.96,0.46 -3.87,1.55 -4.12,1.61 -0.27,-0.18 -1.12,-1.48 -1.33,-1.82 -1.25,-2.11 -2.21,-4.93 -2.21,-7.38zm15.96 -7.72c2.01,0 4.08,-0.27 5.98,-0.71 0.12,0.24 0.35,1.27 0.43,1.64 0.13,0.6 0.23,1.22 0.33,1.79 0.1,0.62 0.14,1.18 0.22,1.83l0.12 2.01 -7.08 0 0 -6.56zm-8.24 6.11c0,-1.51 0.29,-3.77 0.65,-5.21 0.1,-0.43 0.35,-1.2 0.38,-1.61 1.93,0.45 4.01,0.71 6.05,0.71l0 6.56 -7.08 0 0 -0.45zm15.38 -7.14c0.79,-0.02 3.25,-1.15 4.12,-1.61 0.21,0.32 0.42,0.58 0.65,0.89 0.23,0.31 0.44,0.64 0.64,0.97 1.2,2.02 2.18,4.73 2.18,7.34l-6.5 0c-0.07,-0.33 -0.06,-0.55 -0.06,-0.96 0.02,-2.5 -1.03,-6.34 -1.03,-6.63zm-16.53 7.33l0 0.26 -6.57 0c0,-0.35 0.08,-1.09 0.13,-1.41 0.08,-0.46 0.14,-0.97 0.25,-1.37 0.43,-1.68 0.92,-3.04 1.8,-4.5l1.3 -1.92c2.22,1.18 3.58,1.38 4.18,1.67 -0.35,1.51 -0.47,1.71 -0.75,3.43 -0.2,1.18 -0.34,2.51 -0.34,3.84zm9.39 -7.39l0 -7.08c0.52,0.25 0.66,-0.03 2.05,0.91 1.28,0.88 2.54,2.89 3.13,4.33 0.11,0.25 0.4,0.89 0.42,1.13 -0.18,0.08 -0.99,0.22 -1.27,0.27 -0.42,0.08 -0.92,0.14 -1.41,0.21 -0.85,0.12 -2.03,0.15 -2.92,0.23zm-1.16 -7.08l0 7.08c-0.26,-0.03 -0.35,-0.07 -0.71,-0.07 -0.23,0 -0.53,0.02 -0.76,-0.01 -1,-0.11 -1.82,-0.16 -2.87,-0.35 -0.28,-0.05 -1.15,-0.2 -1.32,-0.28 0.13,-0.55 0.64,-1.54 0.9,-2.06 0.17,-0.34 0.32,-0.64 0.53,-0.95 0.2,-0.32 0.39,-0.63 0.62,-0.93 0.59,-0.75 1.52,-1.67 2.43,-2.06 0.44,-0.19 0.69,-0.26 1.18,-0.37zm4.5 0.51c0.45,0.01 1.75,0.55 2.14,0.7 0.61,0.25 1.32,0.63 1.87,0.96 0.57,0.35 1.55,1.03 2.06,1.48l1.08 1.04c-0.2,0.05 -2.1,1.04 -3.74,1.42l-0.62 -1.63c-0.37,-0.86 -1.14,-2.04 -1.72,-2.78l-1.07 -1.19zm-7.91 0c-0.14,0.22 -0.34,0.36 -0.51,0.58 -0.16,0.2 -0.33,0.38 -0.5,0.6 -0.76,0.92 -2.25,3.36 -2.33,4.42 -0.85,-0.2 -1.63,-0.48 -2.41,-0.81l-1.33 -0.61c0.97,-1.44 5.35,-4.03 7.08,-4.18zm7.91 0l0 0zm-7.91 0l0 0z"/>
 </g>
</svg>
