<?xml version="1.0" encoding="UTF-8"?>
<!DOCTYPE svg PUBLIC "-//W3C//DTD SVG 1.1//EN" "http://www.w3.org/Graphics/SVG/1.1/DTD/svg11.dtd">
<!-- Creator: CorelDRAW 2020 (64-Bit Evaluation Version) -->
<svg xmlns="http://www.w3.org/2000/svg" xml:space="preserve" width="68px" height="68px" version="1.1" style="shape-rendering:geometricPrecision; text-rendering:geometricPrecision; image-rendering:optimizeQuality; fill-rule:evenodd; clip-rule:evenodd"
viewBox="0 0 68 68"
 xmlns:xlink="http://www.w3.org/1999/xlink"
 xmlns:xodm="http://www.corel.com/coreldraw/odm/2003">
 <defs>
  <style type="text/css">
   <![CDATA[
    .fil0 {fill:none}
    .fil1 {fill:#BA8523}
   ]]>
  </style>
 </defs>
 <g id="Layer_x0020_1">
  <metadata id="CorelCorpID_0Corel-Layer"/>
  <rect class="fil0" width="68" height="68"/>
  <g id="_1501142884672">
   <path class="fil1" d="M16.42 25.09c0,-11.25 10.8,-19.71 21.45,-17.11 3.39,0.83 6.09,2.29 8.52,4.72 4.74,4.74 6.26,11.44 4.35,17.89 -0.91,3.1 -1.78,5.17 -3.22,8.02l-2.95 5.14c-0.84,1.34 -9.84,14.68 -10.57,15.21 -0.36,-0.26 -6.96,-9.73 -7.97,-11.25 -3.87,-5.8 -8.16,-12.63 -9.33,-19.62 -0.13,-0.83 -0.28,-2.14 -0.28,-3zm-3.51 -0.93c0,5.94 1.01,8.34 3.11,13.41 2.12,5.1 6.57,11.41 9.68,15.98 0.52,0.76 1,1.44 1.55,2.2l3.8 5.34c0.69,1.05 1.7,2.91 2.72,2.91 1.53,0 1.44,-0.49 2.37,-1.72 2.35,-3.13 5.22,-7.59 7.6,-10.8l6.98 -11.31c2.04,-4.07 4.37,-9.49 4.37,-14.14 0,-3.85 -0.37,-6.69 -1.99,-9.96 -1.61,-3.28 -3.93,-6.1 -6.91,-8.2 -3.04,-2.15 -7.2,-3.87 -11.37,-3.87 -3.8,0 -6.65,0.42 -9.85,1.99 -1.17,0.58 -2.14,1.15 -3.16,1.88 -1.06,0.75 -1.8,1.39 -2.72,2.31 -1.8,1.8 -3.07,3.61 -4.19,5.89 -0.93,1.88 -1.99,5.29 -1.99,8.09z"/>
   <path class="fil1" d="M26.97 25.09c0,-1.98 1.06,-3.93 2.08,-4.95 2.72,-2.73 7.18,-2.73 9.9,0 4.49,4.48 1.1,11.98 -4.95,11.98 -1.98,0 -3.94,-1.06 -4.95,-2.07 -1.02,-1.02 -2.08,-2.97 -2.08,-4.96zm-3.52 -0.58c0,2.82 0.35,4.38 1.9,6.66 1.71,2.5 4.98,4.47 8.06,4.47 3.32,0 5.75,-0.76 8.06,-3.08 0.48,-0.48 0.73,-0.74 1.13,-1.33 5.28,-7.6 -0.85,-16.68 -8.01,-16.68 -2.83,0 -4.39,0.34 -6.66,1.89 -1.42,0.97 -2.71,2.49 -3.47,4.04 -0.47,0.97 -1.01,2.65 -1.01,4.03z"/>
  </g>
 </g>
</svg>
