<?xml version="1.0" encoding="UTF-8"?>
<!DOCTYPE svg PUBLIC "-//W3C//DTD SVG 1.1//EN" "http://www.w3.org/Graphics/SVG/1.1/DTD/svg11.dtd">
<!-- Creator: CorelDRAW 2020 (64-Bit Evaluation Version) -->
<svg xmlns="http://www.w3.org/2000/svg" xml:space="preserve" width="68px" height="68px" version="1.1" style="shape-rendering:geometricPrecision; text-rendering:geometricPrecision; image-rendering:optimizeQuality; fill-rule:evenodd; clip-rule:evenodd"
viewBox="0 0 68 68"
 xmlns:xlink="http://www.w3.org/1999/xlink"
 xmlns:xodm="http://www.corel.com/coreldraw/odm/2003">
 <defs>
  <style type="text/css">
   <![CDATA[
    .str0 {stroke:#BA8523;stroke-width:3;stroke-miterlimit:22.9256}
    .str1 {stroke:#BA8523;stroke-width:0.9;stroke-miterlimit:22.9256}
    .fil0 {fill:none}
    .fil1 {fill:#BA8523}
   ]]>
  </style>
 </defs>
 <g id="Layer_x0020_1">
  <metadata id="CorelCorpID_0Corel-Layer"/>
  <circle class="fil0 str0" cx="34" cy="34" r="30"/>
  <g id="_1501127954032">
   <path class="fil1 str1" d="M33.32 48.64l-3.45 -1.89c-0.25,-0.13 -0.42,-0.25 -0.69,-0.38 -0.5,-0.25 -0.92,-0.53 -1.4,-0.77 -0.7,-0.34 -5.27,-2.96 -5.62,-3.04l0 -5.75 0.95 0.47c0.18,0.09 0.29,0.18 0.47,0.27 0.17,0.09 0.32,0.15 0.49,0.26 0.83,0.5 1.91,1.01 2.79,1.54 0.43,0.26 2.68,1.52 2.95,1.52 0.57,0 0.8,-0.44 1.23,-0.87l1.96 -1.96c0.28,-0.28 0.71,-0.77 1,-0.96 0.77,0.51 3.47,3.79 4.06,3.79 0.44,0 0.71,-0.21 1.11,-0.45 0.19,-0.11 0.3,-0.15 0.49,-0.25l6.18 -3.36 0 5.75c-0.29,0.06 -0.44,0.21 -0.68,0.34l-3.49 1.91c-2.09,1.05 -4.79,2.67 -6.99,3.83 0,-0.46 0.06,-6.84 -0.04,-7.13 -0.17,-0.55 -1.03,-0.59 -1.27,-0.05 -0.13,0.3 -0.05,6.69 -0.05,7.18zm18 -23.69l0 0.17c-0.05,0.28 -0.34,0.63 -0.87,1.15 -0.34,0.35 -0.63,0.64 -0.98,0.98l-1.94 1.98c0.19,0.29 0.68,0.72 0.96,1 0.34,0.34 0.64,0.64 0.98,0.98 0.35,0.35 1.85,1.67 1.85,2.08 0,0.57 -0.24,0.6 -0.93,0.97l-3.2 1.73c0,2.23 0.1,4.71 0,6.91 -0.02,0.56 -0.31,0.65 -0.83,0.92l-7.78 4.26c-0.23,0.13 -0.32,0.19 -0.57,0.32 -0.24,0.11 -0.35,0.2 -0.56,0.31 -0.63,0.33 -3.04,1.76 -3.38,1.76 -0.6,0 -2.89,-1.42 -3.56,-1.78l-2.8 -1.53c-0.2,-0.11 -0.29,-0.18 -0.52,-0.3l-5.59 -3.06c-0.51,-0.26 -0.77,-0.36 -0.79,-0.9 -0.1,-2.2 0,-4.68 0,-6.91l-3.25 -1.75c-0.54,-0.29 -0.81,-0.52 -0.88,-0.75l0 -0.24c0.08,-0.29 0.42,-0.61 0.87,-1.06l1.96 -1.96c0.28,-0.28 0.77,-0.71 0.96,-1l-1.98 -2.01c-0.43,-0.44 -1.81,-1.6 -1.81,-2.18 0,-0.43 0.34,-0.56 0.63,-0.73l2.48 -1.37c1.25,-0.64 3.02,-1.72 4.15,-2.28l3.77 -2.05c0.59,-0.34 1.69,-1.08 2.3,-1.08 0.44,0 3.32,3.34 3.99,3.79 0.67,-0.45 3.55,-3.79 3.99,-3.79l0.2 0c0.29,0 3.04,1.57 3.37,1.77 0.37,0.22 0.8,0.3 0.87,0.82 0.06,0.41 -0.35,0.87 -0.87,0.73l-1.11 -0.57c-0.38,-0.2 -0.7,-0.42 -1.08,-0.61 -0.4,-0.2 -0.73,-0.38 -1.13,-0.6l-3.09 3.13c0.48,0.25 0.98,0.48 1.46,0.77 0.47,0.28 0.93,0.49 1.39,0.77 1.29,0.78 4.02,2.21 5.58,3.08 0.5,0.27 0.92,0.47 1.41,0.76 0.46,0.28 0.97,0.49 1.4,0.79l3.1 -3.13 -3.13 -1.74c-0.35,-0.18 -0.79,-0.35 -0.79,-0.83 0,-0.37 0.23,-0.68 0.61,-0.68 0.43,0 1.03,0.39 1.5,0.66 0.47,0.26 0.84,0.46 1.31,0.72 1.48,0.79 2.25,1.13 2.33,1.58zm-13.06 14.36l-3.13 -3.1c0.32,-0.08 0.46,-0.23 0.74,-0.37l2.1 -1.15c0.27,-0.14 0.43,-0.26 0.7,-0.39l1.4 -0.76c0.27,-0.14 0.44,-0.25 0.69,-0.39l4.2 -2.29c0.24,-0.13 0.42,-0.25 0.7,-0.39 0.28,-0.14 0.41,-0.29 0.72,-0.36l3.13 3.1c-0.31,0.08 -0.52,0.22 -0.75,0.36 -0.23,0.14 -0.47,0.27 -0.69,0.39 -0.24,0.14 -0.45,0.23 -0.71,0.38l-6.28 3.46c-0.42,0.23 -2.58,1.45 -2.82,1.51zm-16.65 -9.22c0.28,0.08 1.13,0.61 1.43,0.77l1.4 0.76c0.28,0.14 0.45,0.26 0.7,0.39 2.19,1.13 4.85,2.74 6.99,3.83 0.28,0.14 0.42,0.29 0.72,0.36l-3.09 3.13c-0.29,-0.09 -5,-2.74 -5.64,-3.06l-1.39 -0.77c-0.18,-0.09 -0.18,-0.11 -0.34,-0.2l-2.46 -1.34c-0.25,-0.15 -1.18,-0.68 -1.42,-0.74l3.1 -3.13zm1.36 -0.93l11.03 -5.99 11.03 5.99c-0.17,0.23 -2.9,1.66 -3.37,1.92l-7.66 4.17c-0.11,0 -2.46,-1.32 -2.77,-1.49 -0.8,-0.41 -8.11,-4.4 -8.26,-4.6zm-1.35 -0.81l-3.13 -3.09 4.91 -2.7c0.26,-0.15 0.43,-0.24 0.7,-0.39l5.64 -3.09 3.13 3.1 -2.83 1.53c-0.48,0.29 -0.94,0.49 -1.4,0.77 -0.95,0.58 -2.58,1.37 -3.49,1.92 -0.23,0.14 -0.47,0.27 -0.69,0.39 -0.46,0.27 -0.95,0.48 -1.4,0.76 -0.47,0.29 -1,0.51 -1.44,0.8z"/>
   <path class="fil1 str1" d="M33.32 39.38c0,1.24 1.36,0.84 1.36,0.27 0,-1.06 -0.92,-0.87 -1.14,-0.66 -0.06,0.06 -0.22,0.29 -0.22,0.39z"/>
   <path class="fil1 str1" d="M43.4 21.39c0,1.08 1.36,0.9 1.36,0.06 0,-0.84 -1.36,-0.9 -1.36,-0.06z"/>
  </g>
 </g>
</svg>
