<?xml version="1.0" encoding="UTF-8"?>
<!DOCTYPE svg PUBLIC "-//W3C//DTD SVG 1.1//EN" "http://www.w3.org/Graphics/SVG/1.1/DTD/svg11.dtd">
<!-- Creator: CorelDRAW 2020 (64-Bit Evaluation Version) -->
<svg xmlns="http://www.w3.org/2000/svg" xml:space="preserve" width="68px" height="68px" version="1.1" style="shape-rendering:geometricPrecision; text-rendering:geometricPrecision; image-rendering:optimizeQuality; fill-rule:evenodd; clip-rule:evenodd"
viewBox="0 0 68 68"
 xmlns:xlink="http://www.w3.org/1999/xlink"
 xmlns:xodm="http://www.corel.com/coreldraw/odm/2003">
 <defs>
  <style type="text/css">
   <![CDATA[
    .fil0 {fill:none}
    .fil1 {fill:#BA8523}
   ]]>
  </style>
 </defs>
 <g id="Layer_x0020_1">
  <metadata id="CorelCorpID_0Corel-Layer"/>
  <rect class="fil0" width="68" height="68"/>
  <g id="_2155163672400">
   <path class="fil1" d="M11.06 16.54c0.46,-0.11 1.08,-0.31 1.53,-0.45 0.51,-0.16 1.06,-0.31 1.53,-0.47 2.37,-0.8 6.65,-2.25 8.96,-3.34l10.92 -5.47c0.18,0 2.29,1.24 2.58,1.4 1.68,0.98 5.03,2.53 6.83,3.37 2.83,1.32 10.52,4.26 13.54,4.96 0,11.23 1.14,19.74 -4.44,29.43 -0.27,0.47 -0.47,0.87 -0.78,1.34 -0.84,1.27 -1.65,2.54 -2.65,3.67 -0.39,0.43 -0.58,0.7 -1,1.11 -0.41,0.41 -0.58,0.71 -0.99,1.12 -0.76,0.74 -1.45,1.39 -2.23,2.11l-6.21 4.33c-1.04,0.56 -3.56,1.79 -4.65,1.79 -1.95,0 -6.78,-2.98 -8.43,-4.22l-2.37 -1.84c-1.26,-1.12 -2.55,-2.47 -3.69,-3.69 -1.3,-1.41 -3,-3.9 -3.97,-5.64 -5.66,-10.13 -4.48,-17.86 -4.48,-29.51zm22.74 -12.54l0.29 0c0.56,0.08 1.24,0.63 3.19,1.64 2.87,1.5 6.48,3.38 9.48,4.57 2.24,0.89 4.47,1.79 6.81,2.57 0.6,0.2 1.19,0.4 1.75,0.58 2.73,0.87 4.32,0.65 4.32,2.71 0,7.78 0.49,17.29 -1.83,24.2 -1.93,5.78 -4.69,10.53 -8.97,14.81 -2.44,2.45 -5.92,5.32 -9.06,6.87 -0.52,0.26 -0.81,0.45 -1.29,0.7 -0.44,0.24 -0.92,0.37 -1.4,0.59 -2.83,1.28 -4.38,0.79 -7,-0.34 -1.86,-0.8 -3.95,-2.18 -5.62,-3.28 -2.94,-1.95 -6.8,-5.76 -8.97,-8.84 -0.54,-0.79 -1.08,-1.52 -1.6,-2.39 -6.49,-10.98 -5.54,-19.54 -5.54,-32.32 0,-1.77 0.91,-1.67 2.59,-2.21 0.63,-0.2 1.18,-0.32 1.82,-0.53 4.54,-1.48 9.13,-3.19 13.39,-5.35l3.12 -1.56c3.05,-1.51 3.84,-2.32 4.52,-2.42z"/>
   <path class="fil1" d="M21.01 34.36c0,-1.24 0.77,-1.52 1.75,-1.52 0.71,0 2.95,2.54 3.55,3.13 0.57,0.58 1.06,1.07 1.63,1.65 2.42,2.41 2.15,1.89 6.44,-2.41l10.25 -10.25c0.59,-0.43 2.37,-0.54 2.37,1.43 0,0.86 -2.3,2.83 -2.96,3.49 -4.17,4.17 -8.84,9.02 -12.99,13.02 -0.64,0.61 -1.62,0.55 -2.23,-0.06l-6.49 -6.51c-0.53,-0.53 -1.32,-0.98 -1.32,-1.97zm8.9 1.53c-2.81,-1.89 -5.03,-7.44 -9.37,-5.17 -1.07,0.56 -2.11,1.96 -2.11,3.17 0,1.49 0.01,2.2 1.26,3.43l7.74 7.73c1.63,1.31 3.98,1.14 5.49,-0.4l15.46 -15.47c1.74,-1.76 1.61,-4.72 -0.41,-6.22 -1.04,-0.78 -2.11,-1.06 -3.58,-0.7 -1.16,0.28 -2.01,1.2 -2.75,1.93l-9.36 9.38c-0.6,0.59 -1.79,1.92 -2.37,2.32z"/>
   <path class="fil1" d="M13.4 19.36l0 4.8c0,1.27 1.62,1.79 2.37,0.74 0.39,-0.55 0.2,-3.81 0.2,-4.61 1.04,-0.49 6.22,-1.89 6.75,-2.74 0.44,-0.69 0.26,-1.94 -1.24,-1.94 -0.28,0 -1.79,0.6 -2.18,0.75 -0.73,0.28 -5.14,1.74 -5.41,1.97 -0.22,0.19 -0.49,0.63 -0.49,1.03z"/>
   <path class="fil1" d="M39.51 53.94c0,0.53 0.49,1.17 1.4,1.17 0.53,0 1.49,-0.89 1.97,-1.31 0.26,-0.24 0.37,-0.27 0.64,-0.53 0.64,-0.62 1.87,-1.67 2.33,-2.24 0.68,-0.86 1.36,-1.51 2.04,-2.42l1.42 -1.97c0.98,-1.45 -0.89,-3.31 -2.24,-1.31 -0.36,0.53 -0.6,0.87 -0.97,1.38 -0.99,1.31 -1.39,1.6 -2.11,2.46 -0.65,0.78 -2.15,2.16 -2.95,2.79 -0.74,0.59 -1.53,1.12 -1.53,1.98z"/>
   <path class="fil1" d="M37.63 57.22c1.77,0 1.97,-2.58 0,-2.58 -0.67,0 -1.22,0.75 -1.25,1.31 -0.03,0.66 0.55,1.27 1.25,1.27z"/>
   <path class="fil1" d="M23.94 15.37c0,1.63 2.57,1.82 2.57,-0.12 0,-1.5 -2.57,-1.59 -2.57,0.12z"/>
  </g>
 </g>
</svg>
