<?xml version="1.0" encoding="UTF-8"?>
<!DOCTYPE svg PUBLIC "-//W3C//DTD SVG 1.1//EN" "http://www.w3.org/Graphics/SVG/1.1/DTD/svg11.dtd">
<!-- Creator: CorelDRAW 2020 (64-Bit Evaluation Version) -->
<svg xmlns="http://www.w3.org/2000/svg" xml:space="preserve" width="68px" height="68px" version="1.1" style="shape-rendering:geometricPrecision; text-rendering:geometricPrecision; image-rendering:optimizeQuality; fill-rule:evenodd; clip-rule:evenodd"
viewBox="0 0 68 68"
 xmlns:xlink="http://www.w3.org/1999/xlink"
 xmlns:xodm="http://www.corel.com/coreldraw/odm/2003">
 <defs>
  <style type="text/css">
   <![CDATA[
    .fil0 {fill:none}
    .fil1 {fill:#BA8523}
   ]]>
  </style>
 </defs>
 <g id="Layer_x0020_1">
  <metadata id="CorelCorpID_0Corel-Layer"/>
  <rect class="fil0" width="68" height="68"/>
  <g id="_2283972311600">
   <path class="fil1" d="M39.13 48.6c1.35,-0.11 4.52,-1.47 5.55,-2.08l3.38 -2.24c0.42,-0.31 0.75,-0.66 1.11,-0.89 0.09,0.35 0.6,1.07 0.83,1.44 0.3,0.5 0.53,0.92 0.85,1.42 0.69,1.04 5.04,8.04 5.14,8.51 -0.52,-0.25 -1.18,-0.45 -1.73,-0.67l-5.63 -2c-0.75,0 -1.04,0.84 -1.2,1.47 -0.19,0.69 -0.37,1.36 -0.58,2.09 -0.23,0.76 -0.36,1.35 -0.58,2.1 -0.17,0.58 -0.54,1.71 -0.58,2.23 -0.36,-0.26 -3.11,-5.18 -3.35,-5.62 -0.25,-0.47 -0.54,-0.9 -0.79,-1.34 -0.29,-0.5 -0.53,-0.97 -0.82,-1.46 -0.27,-0.47 -0.53,-0.93 -0.84,-1.44 -0.18,-0.29 -0.24,-0.38 -0.4,-0.67 -0.21,-0.36 -0.22,-0.52 -0.36,-0.85zm-16.87 11.38l-2 -7.36c-0.73,-1.15 -2.48,0 -4.61,0.75l-3.69 1.39c0.12,-0.46 0.57,-1.04 0.83,-1.44l5.18 -8.47c0.27,-0.45 0.7,-0.96 0.81,-1.46 1.37,0.91 2.22,1.99 4.51,3.12 1.33,0.66 4.18,2.06 5.67,2.09l-4.11 7.14c-0.37,0.67 -2.2,3.96 -2.59,4.24zm-8.7 -33.33c0,-3.3 0.8,-5.91 1.76,-8.28 0.63,-1.54 1.81,-3.33 2.85,-4.65 2.65,-3.36 6.63,-5.81 10.78,-6.88 5.41,-1.4 11.55,-0.28 16.23,2.65 0.56,0.35 0.98,0.64 1.49,1.06 0.88,0.71 1.88,1.48 2.58,2.37 0.87,1.12 1.37,1.63 2.14,2.95 4.13,7.07 3.83,16.02 -0.83,22.75 -6.13,8.87 -19.74,11.14 -28.41,4.61l-2.73 -2.35c-3.07,-3.07 -5.86,-8.14 -5.86,-14.23zm-2.14 -0.8c0,4.08 0.23,6.36 1.88,10.04 0.5,1.11 1.09,2.11 1.74,3.08 0.74,1.12 1.72,2.19 2.14,2.81 -0.11,0.41 -0.83,1.5 -1.07,1.87l-7.9 12.99c0,2.5 2.41,0.97 4.97,0.02 0.91,-0.34 4.81,-1.88 5.47,-1.9l1.26 4.9c0.37,1.31 0.9,4.34 1.82,4.34 1.13,0 1.05,-0.31 1.75,-1.47l6.66 -11.54c0.41,-0.68 0.73,-1.29 1.09,-1.98 0.98,0.47 4.54,0.13 5.62,0.13 0.12,0.48 4.85,8.59 5.38,9.48l2.74 4.76c0.34,0.6 0.59,0.62 1.25,0.62 0.78,0 0.96,-1.24 1.16,-1.92l1.36 -4.94c0.22,-0.85 0.5,-1.69 0.7,-2.51l7.09 2.68c1.12,0.44 2.84,1.39 3.25,-0.11 0.19,-0.73 -1.97,-3.9 -2.47,-4.69l-6.54 -10.73c1.21,-1.8 1.69,-1.63 3.31,-4.86 2.13,-4.27 3,-8.5 2.31,-13.47 -0.35,-2.54 -0.97,-4.31 -1.87,-6.3 -0.89,-2 -1.85,-3.39 -3.13,-5.03 -0.34,-0.44 -0.64,-0.63 -0.98,-1.04 -0.81,-0.98 -0.36,-0.37 -1.01,-0.99 -2.21,-2.12 -4.7,-3.65 -7.61,-4.7 -5.02,-1.83 -10.59,-1.86 -15.66,-0.04 -0.7,0.25 -1.27,0.55 -1.88,0.8 -2.07,0.86 -5.67,3.58 -6.94,5.24 -1.63,2.13 -2.35,2.64 -3.75,5.76 -1.02,2.28 -2.14,5.41 -2.14,8.7z"/>
   <path class="fil1" d="M34.04 41.51c-3.45,0 -6.76,-1.28 -9.31,-3.27 -0.4,-0.31 -0.6,-0.58 -0.98,-0.9 -2.56,-2.12 -4.56,-6.62 -4.56,-10.02 0,-3.77 0.86,-6.8 2.67,-9.37 1.53,-2.16 3.58,-3.87 6.18,-4.93 2.77,-1.14 5.99,-1.56 9.43,-0.77 4.6,1.04 7.32,3.44 9.5,7.1 0.64,1.07 1.16,2.73 1.47,4.15 1.35,6.03 -1.18,12.05 -5.99,15.31 -1.15,0.78 -2.18,1.35 -3.64,1.85 -1.23,0.42 -3.19,0.85 -4.77,0.85zm-17.13 -15.26c0,4.18 1.35,8.07 3.8,11.19 0.21,0.26 0.31,0.33 0.5,0.57 0.21,0.26 0.22,0.32 0.48,0.59 3.08,3.22 7.49,4.79 12.09,5.06 1.94,0.11 5.31,-0.65 7.13,-1.44 3.88,-1.68 6.97,-4.62 8.6,-8.53 1.94,-4.62 2.18,-9.79 -0.12,-14.35 -0.61,-1.21 -1.53,-2.88 -2.46,-3.83 -0.9,-0.92 -0.94,-1.1 -2.08,-2.07 -0.95,-0.8 -2.77,-1.88 -3.89,-2.4 -3.23,-1.51 -6.97,-1.87 -10.63,-1.09 -1.27,0.27 -2.11,0.6 -3.23,1.06 -3.79,1.55 -6.74,4.71 -8.54,8.32 -0.84,1.67 -1.65,4.48 -1.65,6.92z"/>
   <path class="fil1" d="M31.77 32.68l-4.86 -4.12c-0.76,-0.71 -1.26,-1.24 -1.97,-1.24 -0.86,0 -1.73,1.03 -0.39,2.13l5.11 4.4c0.25,0.23 0.28,0.22 0.52,0.41 0.32,0.26 1.21,1.23 1.72,1.23 1.11,0 2.34,-2.44 3.33,-3.77 2.62,-3.54 5.73,-8.3 8.22,-11.59 0.99,-1.31 0.84,-2.31 -0.71,-2.31 -0.61,0 -2.44,2.97 -2.86,3.56l-8.11 11.3z"/>
  </g>
 </g>
</svg>
