<?xml version="1.0" encoding="UTF-8"?>
<!DOCTYPE svg PUBLIC "-//W3C//DTD SVG 1.1//EN" "http://www.w3.org/Graphics/SVG/1.1/DTD/svg11.dtd">
<!-- Creator: CorelDRAW 2020 (64-Bit Evaluation Version) -->
<svg xmlns="http://www.w3.org/2000/svg" xml:space="preserve" width="68px" height="68px" version="1.1" style="shape-rendering:geometricPrecision; text-rendering:geometricPrecision; image-rendering:optimizeQuality; fill-rule:evenodd; clip-rule:evenodd"
viewBox="0 0 68 68"
 xmlns:xlink="http://www.w3.org/1999/xlink"
 xmlns:xodm="http://www.corel.com/coreldraw/odm/2003">
 <defs>
  <style type="text/css">
   <![CDATA[
    .str0 {stroke:#BA8523;stroke-width:2;stroke-miterlimit:22.9256}
    .fil0 {fill:none}
    .fil1 {fill:#BA8523}
   ]]>
  </style>
 </defs>
 <g id="Layer_x0020_1">
  <metadata id="CorelCorpID_0Corel-Layer"/>
  <circle class="fil0 str0" cx="34" cy="34" r="20"/>
  <path class="fil1" d="M45.73 32.84l-24.87 0c-1.02,0 -2.5,-0.22 -2.5,1.22 0,0.47 0.37,0.92 0.75,1.01l26.68 0.03 -7.22 7.26c-0.37,0.37 -0.94,0.75 -1.03,1.35 -0.1,0.62 0.29,1.29 1.17,1.29 0.47,0 0.62,-0.23 0.87,-0.47l9.56 -9.57c0.35,-0.35 0.5,-0.41 0.5,-0.99l0 -0.03 0 -0.02c0,-0.46 -0.23,-0.61 -0.47,-0.85l-9.56 -9.57c-0.36,-0.35 -0.42,-0.5 -1.03,-0.5 -0.69,0 -1.13,0.66 -1.05,1.24 0.07,0.61 0.65,1.02 1.01,1.37l7.19 7.23z"/>
 </g>
</svg>
