<?xml version="1.0" encoding="UTF-8"?>
<!DOCTYPE svg PUBLIC "-//W3C//DTD SVG 1.1//EN" "http://www.w3.org/Graphics/SVG/1.1/DTD/svg11.dtd">
<!-- Creator: CorelDRAW 2020 (64-Bit Evaluation Version) -->
<svg xmlns="http://www.w3.org/2000/svg" xml:space="preserve" width="68px" height="68px" version="1.1" style="shape-rendering:geometricPrecision; text-rendering:geometricPrecision; image-rendering:optimizeQuality; fill-rule:evenodd; clip-rule:evenodd"
viewBox="0 0 68 68"
 xmlns:xlink="http://www.w3.org/1999/xlink"
 xmlns:xodm="http://www.corel.com/coreldraw/odm/2003">
 <defs>
  <style type="text/css">
   <![CDATA[
    .str0 {stroke:#BA8523;stroke-width:3;stroke-miterlimit:22.9256}
    .str1 {stroke:#BA8523;stroke-width:0.9;stroke-miterlimit:22.9256}
    .fil0 {fill:none}
    .fil1 {fill:#BA8523}
   ]]>
  </style>
 </defs>
 <g id="Layer_x0020_1">
  <metadata id="CorelCorpID_0Corel-Layer"/>
  <circle class="fil0 str0" cx="34" cy="34" r="30"/>
  <g id="_1501122173664">
   <path class="fil1 str1" d="M22.55 24.86c0.09,-0.14 2.05,-2.18 2.25,-2.18 0.36,0 2.32,1.86 2.96,1.86 0.45,0 1.48,-0.72 2.58,-1.08 1.83,-0.61 1.32,-0.29 1.88,-3.15 0.22,-1.16 -0.37,-0.91 3.13,-0.91 0.55,0 0.25,3.18 1.2,3.69l1.82 0.62c1.39,0.57 1.57,1.21 2.7,0.37l2.13 -1.47c0.22,0 0.92,0.83 1.11,1.02 1.45,1.45 1.46,0.67 -0.38,3.32 -0.91,1.31 -0.15,1.05 0.68,3.52 0.1,0.3 0.16,0.65 0.3,0.92 0.17,0.3 0.32,0.43 0.71,0.51l2.58 0.44c0.19,0.03 0.4,0.02 0.4,0.25l0 2.82c0,0.22 -0.13,0.2 -0.34,0.24l-1.6 0.26c-0.72,0.12 -1.48,0.12 -1.76,0.69 -0.14,0.31 -0.18,0.61 -0.29,0.93 -0.1,0.27 -0.22,0.58 -0.34,0.88 -0.86,2.05 -1.25,1.29 0.17,3.36 0.2,0.3 0.87,1.14 0.95,1.43l-2.17 2.2c-0.49,-0.15 -2.49,-1.88 -2.92,-1.88 -0.82,0 -1.41,0.66 -2.77,1.09 -1.41,0.45 -1.31,0.22 -1.62,2.05l-0.25 1.54c-0.03,0.19 -0.02,0.4 -0.25,0.4 -3.3,0 -2.97,0.24 -3.1,-0.62 -0.04,-0.22 -0.08,-0.49 -0.13,-0.77 -0.47,-2.85 -0.11,-1.91 -2.59,-2.94 -1.46,-0.61 -1.41,-1.1 -2.51,-0.34 -2.75,1.92 -1.96,1.87 -3.33,0.51 -1.27,-1.28 -1.31,-0.98 -0.63,-1.89 0.33,-0.45 1.42,-1.82 1.42,-2.31 0,-0.41 -0.72,-1.5 -1.07,-2.53 -0.1,-0.3 -0.18,-0.65 -0.3,-0.92 -0.34,-0.79 -1.35,-0.7 -2.65,-0.95 -0.3,-0.06 -0.78,-0.16 -1.06,-0.17 -0.12,-0.51 -0.12,-2.7 0,-3.21l2.05 -0.33c2.18,-0.44 1.24,-0.31 2.24,-2.53 0.65,-1.44 1.07,-1.56 0.36,-2.5l-1.56 -2.24zm7.53 -3.28c-0.22,0.02 -0.93,0.31 -1.15,0.4 -0.33,0.13 -0.79,0.43 -1.11,0.5 -0.22,-0.15 -0.41,-0.31 -0.67,-0.49 -0.73,-0.5 -1.48,-1.24 -2.35,-1.24 -1.17,0 -1.84,0.97 -2.46,1.59 -0.94,0.94 -1.66,1.3 -1.66,2.72 0,0.61 0.5,1.16 0.76,1.55 0.16,0.24 0.31,0.45 0.48,0.68 0.19,0.25 0.33,0.48 0.5,0.73 -0.15,0.16 -0.25,0.49 -0.39,0.77 -0.55,1.11 -0.25,1.38 -0.84,1.48 -0.37,0.06 -0.67,0.1 -1.05,0.16 -0.67,0.12 -1.36,0.19 -1.79,0.53 -0.4,0.33 -0.82,0.85 -0.82,1.56l0 3.09c0,0.86 0.66,1.6 1.32,1.83l2.73 0.48c0.03,0.27 0.29,0.9 0.4,1.15 0.13,0.33 0.43,0.79 0.5,1.11l-0.96 1.35c-0.29,0.4 -0.77,0.96 -0.77,1.61 0,1.22 0.92,1.85 1.56,2.49 1.07,1.07 2.16,2.5 3.96,1.16 0.34,-0.25 0.68,-0.45 1.02,-0.71 0.18,-0.14 0.31,-0.23 0.49,-0.36 0.32,-0.24 0.59,0.08 1.18,0.33 0.22,0.09 0.45,0.16 0.67,0.24 0.6,0.23 0.47,0 0.65,1.08 0.19,1.14 0.32,3.1 2.18,3.1l3.08 0c0.78,0 1.43,-0.54 1.72,-1.05 0.25,-0.45 0.38,-1.64 0.49,-2.28 0.13,-0.78 0.06,-0.64 0.53,-0.82 0.37,-0.13 0.69,-0.23 1.02,-0.4 1.11,-0.56 0.75,-0.32 2.55,0.88 1.91,1.28 2.88,-0.21 4.29,-1.62 0.96,-0.96 1.11,-1.06 1.11,-2.24 0,-0.86 -1.67,-2.62 -1.67,-2.83l0.67 -1.64c0.24,-0.62 0.13,-0.59 0.5,-0.66 0.91,-0.17 2.32,-0.24 2.9,-0.71 0.4,-0.33 0.82,-0.84 0.82,-1.56l0 -3.21c0,-0.62 -0.47,-1.19 -0.85,-1.47 -0.54,-0.38 -1.94,-0.52 -2.8,-0.67 -0.37,-0.06 -0.35,-0.03 -0.54,-0.62 -0.17,-0.51 -0.65,-1.46 -0.7,-1.68 0.56,-0.84 1.74,-2.12 1.74,-3.03 0,-0.55 -0.28,-1.14 -0.56,-1.43 -0.36,-0.36 -0.68,-0.67 -1.03,-1.03 -0.96,-0.95 -2.09,-2.51 -3.87,-1.19 -0.19,0.13 -1.56,1.24 -1.85,1.18 -0.17,-0.03 -1.32,-0.66 -2.21,-0.87l-0.49 -2.67c-0.23,-0.66 -0.97,-1.32 -1.83,-1.32l-3.09 0c-0.83,0 -1.53,0.58 -1.82,1.33l-0.49 2.72z"/>
   <path class="fil1 str1" d="M28.79 34.13c0,-1.87 0.72,-3.31 2.18,-4.39 0.2,-0.15 0.51,-0.34 0.76,-0.46 3.37,-1.66 7.48,0.91 7.48,4.46 0,1.95 -0.63,3.38 -2.18,4.52 -3.2,2.36 -8.24,0.11 -8.24,-4.13zm12.35 -0.13c0,-5.66 -6.49,-9.18 -11.19,-5.85 -3.32,2.35 -4.09,6.93 -1.61,10.16 2.88,3.77 8.59,3.79 11.49,-0.22 0.68,-0.95 1.31,-2.48 1.31,-4.09z"/>
  </g>
 </g>
</svg>
