<?xml version="1.0" encoding="UTF-8"?>
<!DOCTYPE svg PUBLIC "-//W3C//DTD SVG 1.1//EN" "http://www.w3.org/Graphics/SVG/1.1/DTD/svg11.dtd">
<!-- Creator: CorelDRAW 2020 (64-Bit Evaluation Version) -->
<svg xmlns="http://www.w3.org/2000/svg" xml:space="preserve" width="68px" height="68px" version="1.1" style="shape-rendering:geometricPrecision; text-rendering:geometricPrecision; image-rendering:optimizeQuality; fill-rule:evenodd; clip-rule:evenodd"
viewBox="0 0 68 68"
 xmlns:xlink="http://www.w3.org/1999/xlink"
 xmlns:xodm="http://www.corel.com/coreldraw/odm/2003">
 <defs>
  <style type="text/css">
   <![CDATA[
    .fil0 {fill:none}
    .fil1 {fill:#BA8523}
   ]]>
  </style>
 </defs>
 <g id="Layer_x0020_1">
  <metadata id="CorelCorpID_0Corel-Layer"/>
  <rect class="fil0" width="68" height="68"/>
  <g id="_2155158313408">
   <path class="fil1" d="M45.61 62.07l-13.55 0 0 -12.83c0,-0.62 0.71,-1.25 1.07,-1.71 0.89,-1.13 8.39,-10.62 8.85,-10.95 5.38,1.28 9.3,4.04 11.9,8.39 1.28,2.17 0.79,1.89 0.46,5.36l1.9 0.24 1.85 -15.6 3.97 0 0.01 13.55c0,1.11 -0.19,1.98 -0.65,2.85 -1.4,2.62 -4.58,3.73 -7.36,2.37 -1.84,-0.9 -4.37,-4.82 -5.89,-6.69 -0.32,-0.4 -0.62,-0.58 -0.62,-1.2l0 -4.11 -1.94 0 0 20.33zm-25.16 -16.22c0,0.63 -0.81,1.47 -1.36,2.15 -1.45,1.8 -3.4,4.89 -5.15,5.74 -3.57,1.73 -8.01,-0.57 -8.01,-5.22l0 -13.55 3.99 0 1.83 15.59 1.91 -0.22c-0.1,-1.02 -0.23,-2.03 -0.35,-3.04 -0.13,-1 0.36,-1.56 0.81,-2.33 2.56,-4.32 6.59,-7.14 11.9,-8.39 0.42,0.31 2.84,3.43 3.37,4.09 0.56,0.7 1.1,1.38 1.66,2.09 0.59,0.74 1.12,1.34 1.67,2.13 -3.09,4.47 -2.59,1.46 -2.59,7.26 0,3.3 0,6.61 0,9.92l-7.76 0 0.02 -20.33 -1.94 0 0 4.11zm13.55 -2.59l-2.85 -3.5c-0.96,-1.2 -1.87,-2.31 -2.81,-3.47 0.28,-0.19 0.82,-0.21 1.22,-0.25 1.45,3.62 7.35,3.77 8.88,0 0.41,0.04 0.94,0.07 1.22,0.25l-5.66 6.97zm2.23 -10.23c0.28,1.08 0.92,1.78 0.19,2.66 -1.35,1.63 -3.51,1.61 -4.84,0 -0.73,-0.88 -0.09,-1.58 0.18,-2.66l4.47 0zm-30.29 0c0,-2.65 -0.42,-4.82 1.89,-5.64 0.19,1.37 0.03,2.03 0.87,2.87 0.61,0.61 1.64,0.94 2.79,0.74 -0.19,0.7 -0.87,1.38 -1.19,2.03l-4.36 0zm50.32 -4.84c0,-1.22 1.93,-1.22 1.93,0 0,1.23 -1.93,1.23 -1.93,0zm-7.74 0c0,-1.22 1.93,-1.22 1.93,0 0,1.23 -1.93,1.23 -1.93,0zm9.19 4.83c-0.32,-0.62 -1.02,-1.34 -1.2,-2.02 2.42,0.41 3.94,-1.24 3.49,-3.66 2.45,0.55 2.06,3.14 2.06,5.69l-4.35 -0.01zm-30.48 -7.73l13.54 0 0 1.57c0,2.64 -1.6,4.24 -4.23,4.24l-5.08 0c-2.64,0 -4.23,-1.61 -4.23,-4.24l0 -1.57zm15.48 -3.87c2.57,0.23 2.56,3.64 0,3.87l0 -3.87zm-17.42 3.87c-2.57,-0.23 -2.57,-3.64 0,-3.87l0 3.87zm1.94 -7.74l13.54 0 0 5.8 -13.54 0 0 -5.8zm15.48 0l1.94 0 0 2.44c-0.78,-0.3 -0.99,-0.45 -1.94,-0.51l0 -1.93zm-19.36 0l1.94 0 0 1.93c-0.95,0.06 -1.17,0.21 -1.94,0.51l0 -2.44zm-13.5 -3.47c1.45,0.49 2.1,0.95 2.84,1.92 0.69,0.91 1.13,2.21 0.92,3.65 -0.24,1.68 -0.92,2.18 -1.66,3.07 -0.37,0.45 -0.22,1.49 -0.22,2.21 0,0.76 0,1.53 0,2.3 0,0.8 0.07,1.54 -0.58,1.83 -0.72,0.31 -1.26,-0.26 -1.33,-0.87l0.03 -14.11zm13.5 1.53c0,-3.54 -0.57,-6.55 1.69,-8.48 1.14,-0.98 2.03,-1.2 3.88,-1.2l10.16 0c1.86,0 2.73,0.21 3.89,1.2 2.25,1.92 1.68,4.96 1.68,8.48l-21.3 0zm-1.93 -5.2l0 13.19c0,1.03 0.53,1.9 1.05,2.45 0.74,0.76 1.63,1.18 2.82,1.18 0,2.83 1.9,5.08 4.48,5.68 -0.14,0.28 -0.34,0.83 -0.37,1.21 -2.97,0 -7.45,1.38 -9.94,2.88 -1.36,0.82 -2.55,1.68 -3.64,2.78 -0.54,0.54 -1.08,1.01 -1.54,1.6l-1.45 1.81c0,-1.34 -0.97,-7.42 -0.97,-8.83 0,-0.49 1.22,-1.61 1.65,-3.07 0.21,-0.72 0.19,-1.22 0.14,-2.09l0.02 -4.52c-0.01,-1.27 0.13,-0.93 0.7,-1.72 2.07,-2.87 1.54,-7.05 -1.21,-9.37 -1.03,-0.87 -4.26,-2.13 -5.29,-2.21l0 13.91c-0.22,0.11 -0.48,0.15 -0.73,0.24 -0.86,0.31 -1.24,0.56 -1.9,1.24 -0.62,0.63 -1.24,1.68 -1.24,2.88l0 19.59c0,3.56 3.46,7.02 7.02,7.02 2.7,0 4.19,-0.56 6.08,-2.51l3.35 -4.27 0 14.52 27.1 0 0 -14.52 1.65 2.1c1.19,1.45 1.96,2.88 3.79,3.83 2.1,1.1 4.65,1.17 6.78,0.12 0.44,-0.21 0.68,-0.33 1.07,-0.62l1.01 -0.8c0.22,-0.21 0.18,-0.23 0.37,-0.47 0.17,-0.22 0.2,-0.24 0.38,-0.47 0.73,-0.95 1.4,-2.59 1.4,-3.93l0 -19.59c0,-1.91 -1.45,-3.4 -2.78,-4 -0.91,-0.41 -1.67,-0.41 -2.99,-0.33 -1.29,0.07 -1.45,-0.2 -2.7,0.45 -0.15,-0.65 -1.09,-3.02 -1.09,-3.38 0,-0.2 0.76,-2.33 0.9,-2.74 0.3,-0.92 0.71,-1.94 0.92,-2.83l-1.94 -0.6c-0.19,0.82 -0.78,2 -0.84,2.78l-0.25 0c-0.06,-0.78 -0.65,-1.96 -0.84,-2.78 -0.32,0.15 -1.54,0.57 -1.94,0.6l1.82 5.57c0,0.36 -0.94,2.73 -1.09,3.38 -2.29,-1.21 -4.6,-0.09 -4.6,2.67 0,2.79 4.44,3.89 5.64,0.8 0.15,-0.37 0.12,-0.47 0.22,-0.87 0.19,-0.76 0.74,-1.92 0.79,-2.6l0.25 0c0.07,0.91 0.9,2.37 0.88,3.25 0,0.39 -0.05,0.9 -0.04,1.36 0.04,1.67 1.82,3.56 1.82,3.86 0,1.84 -0.97,7.37 -0.97,8.95 -0.24,-0.17 -0.51,-0.59 -0.71,-0.86 -0.92,-1.24 -1.2,-1.47 -2.28,-2.55 -2.08,-2.09 -5.18,-3.9 -8.11,-4.72 -1.33,-0.37 -3.79,-0.94 -5.47,-0.94 -0.03,-0.38 -0.23,-0.93 -0.37,-1.21 1.06,-0.24 2.39,-0.98 3.03,-1.81 0.4,-0.51 0.68,-0.8 0.97,-1.45 0.4,-0.91 0.48,-1.42 0.48,-2.42 2.23,0 3.87,-1.86 3.87,-3.51l0 -13.31c0,-3.3 -3.11,-6.41 -6.41,-6.41l-12.34 0c-3.3,0 -6.41,3.11 -6.41,6.41z"/>
   <polygon class="fil1" points="33.03,9.81 31.1,9.81 31.1,11.74 33.03,11.74 33.03,13.68 34.96,13.68 34.97,11.74 36.9,11.74 36.9,9.81 34.97,9.81 34.97,7.87 33.04,7.87 "/>
   <polygon class="fil1" points="34,52.39 35.93,52.39 35.94,50.45 34,50.45 "/>
   <polygon class="fil1" points="34,56.26 35.93,56.26 35.94,54.32 34,54.32 "/>
   <polygon class="fil1" points="34,60.13 35.93,60.13 35.94,58.2 34,58.2 "/>
   <path class="fil1" d="M29.8 19.58c-1.32,0.63 -0.34,2.2 0.71,1.74 1.14,-0.49 0.38,-2.26 -0.71,-1.74z"/>
   <path class="fil1" d="M37.54 19.58c-1.31,0.63 -0.34,2.2 0.71,1.74 1.14,-0.49 0.38,-2.26 -0.71,-1.74z"/>
  </g>
 </g>
</svg>
