<?xml version="1.0" encoding="UTF-8"?>
<!DOCTYPE svg PUBLIC "-//W3C//DTD SVG 1.1//EN" "http://www.w3.org/Graphics/SVG/1.1/DTD/svg11.dtd">
<!-- Creator: CorelDRAW 2020 (64-Bit Evaluation Version) -->
<svg xmlns="http://www.w3.org/2000/svg" xml:space="preserve" width="68px" height="68px" version="1.1" style="shape-rendering:geometricPrecision; text-rendering:geometricPrecision; image-rendering:optimizeQuality; fill-rule:evenodd; clip-rule:evenodd"
viewBox="0 0 68 68"
 xmlns:xlink="http://www.w3.org/1999/xlink"
 xmlns:xodm="http://www.corel.com/coreldraw/odm/2003">
 <defs>
  <style type="text/css">
   <![CDATA[
    .fil0 {fill:none}
    .fil1 {fill:#BA8523}
   ]]>
  </style>
 </defs>
 <g id="Layer_x0020_1">
  <metadata id="CorelCorpID_0Corel-Layer"/>
  <rect class="fil0" width="68" height="68"/>
  <g id="_1503074226736">
   <path class="fil1" d="M49.83 54.27c-0.85,3.63 -6.2,2.44 -5.45,-1.21 0.28,-1.35 1.64,-2.5 3.36,-2.12 1.32,0.3 2.48,1.65 2.09,3.33zm-16.36 -50.27l1.01 0c1.25,0.1 2.5,0.55 3.62,1.4 1.58,1.2 1.71,2.23 2.22,3.29 2.23,0 3.96,0.76 5.23,2.26 0.32,0.38 0.77,1.05 0.97,1.49 0.91,1.94 0.58,6.91 0.58,9.37 1.35,0 2.15,0.73 2.58,1.64 0.38,0.8 0.34,5.27 0.07,5.94 -0.85,2.11 -2.66,1.8 -4.52,1.8 0,2.39 -0.61,4.39 -1.8,6.16 -0.6,0.9 -0.97,1.11 -1.01,1.57 0.42,0.04 1.71,0.6 2.14,0.79l6.07 2.48c1.37,0.55 2.7,1.12 4.06,1.67 2.08,0.84 3.47,2.01 4.58,3.97 0.28,0.49 0.6,1.39 0.75,2.06 0.37,1.57 0.19,9.1 0.19,11.3 0,0.81 0.18,2.11 -0.26,2.55 -0.13,0.13 -0.27,0.22 -0.42,0.26l-0.49 0c-0.35,-0.11 -0.65,-0.45 -0.72,-0.94 0,-2.54 0.02,-5.07 0.02,-7.61 0,-4.83 0.45,-7.9 -4.94,-10.07 -1.72,-0.69 -3.62,-1.59 -5.36,-2.16l0.01 5.89c5.43,1.07 4.68,9.26 -0.94,9.26 -5.64,0 -6.38,-8.19 -0.94,-9.26l-0.01 -6.68 -3.91 -1.55c-0.3,1.07 -5,12.1 -5.85,14.15 -0.33,0.8 -0.66,1.61 -1,2.41 -0.29,0.69 -0.53,1.86 -1.4,1.86 -0.86,0 -1.13,-1.22 -1.44,-1.95l-6.83 -16.5 -5.77 2.41c0,4.04 -0.37,2.57 1.54,3.5 3.3,1.61 3.19,4.63 3.14,7.64 -0.02,1.47 -0.63,2.29 -1.57,2.75 -1.68,0.81 -2.75,-0.44 -1.88,-1.3 1.05,-1.03 1.58,0.74 1.58,-2.75 0,-1.5 0.06,-2.57 -0.77,-3.56 -1.65,-1.94 -4.08,-2 -5.83,-0.12 -0.84,0.9 -0.89,1.98 -0.89,3.45 0,0.51 -0.09,1.71 0.1,2.13 0.28,0.64 0.81,0.38 1.36,0.75 0.92,0.62 0.26,2.24 -1.59,1.47 -0.98,-0.4 -1.67,-1.21 -1.74,-2.59 -0.05,-1.09 -0.08,-3.19 0.16,-4.17 0.53,-2.14 2.24,-3.76 4.52,-4.18l-0.02 -2.29c-0.8,0.27 -1.64,0.65 -2.47,0.99 -2.38,0.97 -4.53,1.63 -5.58,4.72 -0.68,1.99 -0.34,10.62 -0.34,13.36 -0.07,0.51 -0.38,0.84 -0.74,0.94l-0.48 0c-0.17,-0.05 -0.33,-0.15 -0.46,-0.32 -0.4,-0.48 -0.21,-1.82 -0.21,-2.61 0,-2.2 -0.17,-9.72 0.21,-11.27 0.59,-2.42 2.22,-4.45 4.42,-5.54l5.03 -2.11c1.43,-0.57 2.66,-1.08 4.08,-1.65 0.73,-0.3 1.28,-0.53 1.99,-0.82 0.46,-0.2 1.64,-0.72 2.06,-0.76 -0.05,-0.55 -0.22,-0.46 -0.54,-0.87 -0.52,-0.67 -1.05,-1.66 -1.41,-2.45 -0.55,-1.17 -0.86,-2.73 -0.86,-4.41 -1.79,0 -2.72,0.18 -3.77,-0.68 -1.09,-0.9 -0.91,-2.25 -0.91,-3.54 0,-1.7 -0.22,-2.87 0.49,-3.97 0.88,-1.36 2.16,-1.15 3.25,-1.2 7.8,0 15.59,0 23.39,0 0,-1.76 0.23,-6.37 -0.15,-7.78 -0.53,-1.95 -2.17,-3.36 -4.52,-3.46 -0.11,2.19 -0.8,3.48 -1.93,4.62 -3.93,3.95 -10.93,1.6 -11.17,-4.62 -2.24,0.1 -3.8,1.39 -4.4,3.1 -0.38,1.08 -0.28,2.28 -0.28,3.47 0,1.33 0.31,2.62 -0.94,2.82 -0.91,-0.11 -0.95,-0.55 -0.94,-1.53 0.03,-2.23 -0.22,-4.63 0.76,-6.29 1.34,-2.27 3.19,-3.44 6.03,-3.44 0.16,-0.34 0.21,-0.66 0.39,-1.02 1.1,-2.19 3.17,-3.5 5.4,-3.67zm-3.27 42.79c1.42,0.38 2.08,0.78 3.8,0.78 1.66,0 2.42,-0.37 3.78,-0.79l-3.73 9.04 -3.85 -9.03zm10.21 -6.32c-0.24,0.69 -0.54,1.36 -0.83,2.05 -0.52,1.23 -0.38,0.97 -1.25,1.68 -2.44,2 -6.21,1.98 -8.66,-0.01 -0.87,-0.71 -0.73,-0.43 -1.25,-1.67 -0.29,-0.69 -0.59,-1.36 -0.83,-2.05 4.6,2.68 8.26,2.68 12.82,0zm-14.83 -5.3c0.66,-0.47 2.97,-1.39 3.93,-1.8 3.89,-1.68 5.01,-1.72 8.99,-0.01 0.99,0.43 3.27,1.35 3.92,1.81 -1.03,2.97 -4.82,5.38 -8.42,5.38 -3.59,0 -7.42,-2.44 -8.42,-5.38zm-0.94 -11.48l18.72 0 -0.23 9.64 -4.28 -1.84c-6.79,-3.1 -9.08,0.34 -14.02,1.85l-0.19 -2.39 0 -7.26zm20.59 -0.01l1.52 0c1.68,0 1.3,1.34 1.29,2.82 0,1.48 0.37,2.8 -1.29,2.8l-1.51 0 -0.01 -5.62zm-22.47 5.62c-2.96,0 -2.8,0.18 -2.8,-2.8 -0.01,-3 -0.17,-2.82 2.82,-2.82l-0.02 5.62zm10.45 -23.34c6.05,-1.06 7.66,8.06 1.64,9.21 -2.8,0.53 -5.02,-1.49 -5.45,-3.76 -0.54,-2.84 1.5,-5.04 3.81,-5.45z"/>
   <path class="fil1" d="M33.69 9.73c1.06,-0.51 1.73,1.21 0.67,1.67 -0.98,0.43 -1.95,-1.05 -0.67,-1.67zm-2.43 1.42c0.75,3.54 6.17,2.54 5.49,-1.12 -0.25,-1.37 -1.57,-2.54 -3.29,-2.22 -1.37,0.25 -2.56,1.61 -2.2,3.34z"/>
   <path class="fil1" d="M29 25.66c-1.16,0.56 -0.72,3.24 0.69,2.62 1.05,-0.46 0.69,-3.28 -0.69,-2.62z"/>
   <path class="fil1" d="M38.36 25.66c-1.16,0.56 -0.72,3.24 0.69,2.62 1.05,-0.46 0.69,-3.28 -0.69,-2.62z"/>
  </g>
 </g>
</svg>
